<?xml version="1.0" encoding="utf-8" standalone="no"?>
<!DOCTYPE svg PUBLIC "-//W3C//DTD SVG 1.1//EN"
  "http://www.w3.org/Graphics/SVG/1.1/DTD/svg11.dtd">
<!-- Created with matplotlib (https://matplotlib.org/) -->
<svg height="366.48pt" version="1.1" viewBox="0 0 768.24 366.48" width="768.24pt" xmlns="http://www.w3.org/2000/svg" xmlns:xlink="http://www.w3.org/1999/xlink">
 <defs>
  <style type="text/css">
*{stroke-linecap:butt;stroke-linejoin:round;}
  </style>
 </defs>
 <g id="figure_1">
  <g id="patch_1">
   <path d="M 0 366.48 
L 768.24 366.48 
L 768.24 0 
L 0 0 
z
" style="fill:#ffffff;"/>
  </g>
  <g id="axes_1">
   <g id="patch_2">
    <path d="M 100.424706 145.489167 
L 257.147 145.489167 
L 257.147 27.486 
L 100.424706 27.486 
z
" style="fill:#ffffff;"/>
   </g>
   <g id="matplotlib.axis_1">
    <g id="xtick_1">
     <g id="line2d_1">
      <defs>
       <path d="M 0 0 
L 0 3.5 
" id="m89fb5daf48" style="stroke:#000000;stroke-width:0.8;"/>
      </defs>
      <g>
       <use style="stroke:#000000;stroke-width:0.8;" x="104.580222" xlink:href="#m89fb5daf48" y="145.489167"/>
      </g>
     </g>
     <g id="text_1">
      <!-- 0 -->
      <defs>
       <path d="M 31.78125 66.40625 
Q 24.171875 66.40625 20.328125 58.90625 
Q 16.5 51.421875 16.5 36.375 
Q 16.5 21.390625 20.328125 13.890625 
Q 24.171875 6.390625 31.78125 6.390625 
Q 39.453125 6.390625 43.28125 13.890625 
Q 47.125 21.390625 47.125 36.375 
Q 47.125 51.421875 43.28125 58.90625 
Q 39.453125 66.40625 31.78125 66.40625 
z
M 31.78125 74.21875 
Q 44.046875 74.21875 50.515625 64.515625 
Q 56.984375 54.828125 56.984375 36.375 
Q 56.984375 17.96875 50.515625 8.265625 
Q 44.046875 -1.421875 31.78125 -1.421875 
Q 19.53125 -1.421875 13.0625 8.265625 
Q 6.59375 17.96875 6.59375 36.375 
Q 6.59375 54.828125 13.0625 64.515625 
Q 19.53125 74.21875 31.78125 74.21875 
z
" id="DejaVuSans-48"/>
      </defs>
      <g transform="translate(101.398972 160.087604)scale(0.1 -0.1)">
       <use xlink:href="#DejaVuSans-48"/>
      </g>
     </g>
    </g>
    <g id="xtick_2">
     <g id="line2d_2">
      <g>
       <use style="stroke:#000000;stroke-width:0.8;" x="163.944727" xlink:href="#m89fb5daf48" y="145.489167"/>
      </g>
     </g>
     <g id="text_2">
      <!-- 2 -->
      <defs>
       <path d="M 19.1875 8.296875 
L 53.609375 8.296875 
L 53.609375 0 
L 7.328125 0 
L 7.328125 8.296875 
Q 12.9375 14.109375 22.625 23.890625 
Q 32.328125 33.6875 34.8125 36.53125 
Q 39.546875 41.84375 41.421875 45.53125 
Q 43.3125 49.21875 43.3125 52.78125 
Q 43.3125 58.59375 39.234375 62.25 
Q 35.15625 65.921875 28.609375 65.921875 
Q 23.96875 65.921875 18.8125 64.3125 
Q 13.671875 62.703125 7.8125 59.421875 
L 7.8125 69.390625 
Q 13.765625 71.78125 18.9375 73 
Q 24.125 74.21875 28.421875 74.21875 
Q 39.75 74.21875 46.484375 68.546875 
Q 53.21875 62.890625 53.21875 53.421875 
Q 53.21875 48.921875 51.53125 44.890625 
Q 49.859375 40.875 45.40625 35.40625 
Q 44.1875 33.984375 37.640625 27.21875 
Q 31.109375 20.453125 19.1875 8.296875 
z
" id="DejaVuSans-50"/>
      </defs>
      <g transform="translate(160.763477 160.087604)scale(0.1 -0.1)">
       <use xlink:href="#DejaVuSans-50"/>
      </g>
     </g>
    </g>
    <g id="xtick_3">
     <g id="line2d_3">
      <g>
       <use style="stroke:#000000;stroke-width:0.8;" x="223.309232" xlink:href="#m89fb5daf48" y="145.489167"/>
      </g>
     </g>
     <g id="text_3">
      <!-- 4 -->
      <defs>
       <path d="M 37.796875 64.3125 
L 12.890625 25.390625 
L 37.796875 25.390625 
z
M 35.203125 72.90625 
L 47.609375 72.90625 
L 47.609375 25.390625 
L 58.015625 25.390625 
L 58.015625 17.1875 
L 47.609375 17.1875 
L 47.609375 0 
L 37.796875 0 
L 37.796875 17.1875 
L 4.890625 17.1875 
L 4.890625 26.703125 
z
" id="DejaVuSans-52"/>
      </defs>
      <g transform="translate(220.127982 160.087604)scale(0.1 -0.1)">
       <use xlink:href="#DejaVuSans-52"/>
      </g>
     </g>
    </g>
    <g id="text_4">
     <!-- Simulation time $t$ -->
     <defs>
      <path d="M 53.515625 70.515625 
L 53.515625 60.890625 
Q 47.90625 63.578125 42.921875 64.890625 
Q 37.9375 66.21875 33.296875 66.21875 
Q 25.25 66.21875 20.875 63.09375 
Q 16.5 59.96875 16.5 54.203125 
Q 16.5 49.359375 19.40625 46.890625 
Q 22.3125 44.4375 30.421875 42.921875 
L 36.375 41.703125 
Q 47.40625 39.59375 52.65625 34.296875 
Q 57.90625 29 57.90625 20.125 
Q 57.90625 9.515625 50.796875 4.046875 
Q 43.703125 -1.421875 29.984375 -1.421875 
Q 24.8125 -1.421875 18.96875 -0.25 
Q 13.140625 0.921875 6.890625 3.21875 
L 6.890625 13.375 
Q 12.890625 10.015625 18.65625 8.296875 
Q 24.421875 6.59375 29.984375 6.59375 
Q 38.421875 6.59375 43.015625 9.90625 
Q 47.609375 13.234375 47.609375 19.390625 
Q 47.609375 24.75 44.3125 27.78125 
Q 41.015625 30.8125 33.5 32.328125 
L 27.484375 33.5 
Q 16.453125 35.6875 11.515625 40.375 
Q 6.59375 45.0625 6.59375 53.421875 
Q 6.59375 63.09375 13.40625 68.65625 
Q 20.21875 74.21875 32.171875 74.21875 
Q 37.3125 74.21875 42.625 73.28125 
Q 47.953125 72.359375 53.515625 70.515625 
z
" id="DejaVuSans-83"/>
      <path d="M 9.421875 54.6875 
L 18.40625 54.6875 
L 18.40625 0 
L 9.421875 0 
z
M 9.421875 75.984375 
L 18.40625 75.984375 
L 18.40625 64.59375 
L 9.421875 64.59375 
z
" id="DejaVuSans-105"/>
      <path d="M 52 44.1875 
Q 55.375 50.25 60.0625 53.125 
Q 64.75 56 71.09375 56 
Q 79.640625 56 84.28125 50.015625 
Q 88.921875 44.046875 88.921875 33.015625 
L 88.921875 0 
L 79.890625 0 
L 79.890625 32.71875 
Q 79.890625 40.578125 77.09375 44.375 
Q 74.3125 48.1875 68.609375 48.1875 
Q 61.625 48.1875 57.5625 43.546875 
Q 53.515625 38.921875 53.515625 30.90625 
L 53.515625 0 
L 44.484375 0 
L 44.484375 32.71875 
Q 44.484375 40.625 41.703125 44.40625 
Q 38.921875 48.1875 33.109375 48.1875 
Q 26.21875 48.1875 22.15625 43.53125 
Q 18.109375 38.875 18.109375 30.90625 
L 18.109375 0 
L 9.078125 0 
L 9.078125 54.6875 
L 18.109375 54.6875 
L 18.109375 46.1875 
Q 21.1875 51.21875 25.484375 53.609375 
Q 29.78125 56 35.6875 56 
Q 41.65625 56 45.828125 52.96875 
Q 50 49.953125 52 44.1875 
z
" id="DejaVuSans-109"/>
      <path d="M 8.5 21.578125 
L 8.5 54.6875 
L 17.484375 54.6875 
L 17.484375 21.921875 
Q 17.484375 14.15625 20.5 10.265625 
Q 23.53125 6.390625 29.59375 6.390625 
Q 36.859375 6.390625 41.078125 11.03125 
Q 45.3125 15.671875 45.3125 23.6875 
L 45.3125 54.6875 
L 54.296875 54.6875 
L 54.296875 0 
L 45.3125 0 
L 45.3125 8.40625 
Q 42.046875 3.421875 37.71875 1 
Q 33.40625 -1.421875 27.6875 -1.421875 
Q 18.265625 -1.421875 13.375 4.4375 
Q 8.5 10.296875 8.5 21.578125 
z
M 31.109375 56 
z
" id="DejaVuSans-117"/>
      <path d="M 9.421875 75.984375 
L 18.40625 75.984375 
L 18.40625 0 
L 9.421875 0 
z
" id="DejaVuSans-108"/>
      <path d="M 34.28125 27.484375 
Q 23.390625 27.484375 19.1875 25 
Q 14.984375 22.515625 14.984375 16.5 
Q 14.984375 11.71875 18.140625 8.90625 
Q 21.296875 6.109375 26.703125 6.109375 
Q 34.1875 6.109375 38.703125 11.40625 
Q 43.21875 16.703125 43.21875 25.484375 
L 43.21875 27.484375 
z
M 52.203125 31.203125 
L 52.203125 0 
L 43.21875 0 
L 43.21875 8.296875 
Q 40.140625 3.328125 35.546875 0.953125 
Q 30.953125 -1.421875 24.3125 -1.421875 
Q 15.921875 -1.421875 10.953125 3.296875 
Q 6 8.015625 6 15.921875 
Q 6 25.140625 12.171875 29.828125 
Q 18.359375 34.515625 30.609375 34.515625 
L 43.21875 34.515625 
L 43.21875 35.40625 
Q 43.21875 41.609375 39.140625 45 
Q 35.0625 48.390625 27.6875 48.390625 
Q 23 48.390625 18.546875 47.265625 
Q 14.109375 46.140625 10.015625 43.890625 
L 10.015625 52.203125 
Q 14.9375 54.109375 19.578125 55.046875 
Q 24.21875 56 28.609375 56 
Q 40.484375 56 46.34375 49.84375 
Q 52.203125 43.703125 52.203125 31.203125 
z
" id="DejaVuSans-97"/>
      <path d="M 18.3125 70.21875 
L 18.3125 54.6875 
L 36.8125 54.6875 
L 36.8125 47.703125 
L 18.3125 47.703125 
L 18.3125 18.015625 
Q 18.3125 11.328125 20.140625 9.421875 
Q 21.96875 7.515625 27.59375 7.515625 
L 36.8125 7.515625 
L 36.8125 0 
L 27.59375 0 
Q 17.1875 0 13.234375 3.875 
Q 9.28125 7.765625 9.28125 18.015625 
L 9.28125 47.703125 
L 2.6875 47.703125 
L 2.6875 54.6875 
L 9.28125 54.6875 
L 9.28125 70.21875 
z
" id="DejaVuSans-116"/>
      <path d="M 30.609375 48.390625 
Q 23.390625 48.390625 19.1875 42.75 
Q 14.984375 37.109375 14.984375 27.296875 
Q 14.984375 17.484375 19.15625 11.84375 
Q 23.34375 6.203125 30.609375 6.203125 
Q 37.796875 6.203125 41.984375 11.859375 
Q 46.1875 17.53125 46.1875 27.296875 
Q 46.1875 37.015625 41.984375 42.703125 
Q 37.796875 48.390625 30.609375 48.390625 
z
M 30.609375 56 
Q 42.328125 56 49.015625 48.375 
Q 55.71875 40.765625 55.71875 27.296875 
Q 55.71875 13.875 49.015625 6.21875 
Q 42.328125 -1.421875 30.609375 -1.421875 
Q 18.84375 -1.421875 12.171875 6.21875 
Q 5.515625 13.875 5.515625 27.296875 
Q 5.515625 40.765625 12.171875 48.375 
Q 18.84375 56 30.609375 56 
z
" id="DejaVuSans-111"/>
      <path d="M 54.890625 33.015625 
L 54.890625 0 
L 45.90625 0 
L 45.90625 32.71875 
Q 45.90625 40.484375 42.875 44.328125 
Q 39.84375 48.1875 33.796875 48.1875 
Q 26.515625 48.1875 22.3125 43.546875 
Q 18.109375 38.921875 18.109375 30.90625 
L 18.109375 0 
L 9.078125 0 
L 9.078125 54.6875 
L 18.109375 54.6875 
L 18.109375 46.1875 
Q 21.34375 51.125 25.703125 53.5625 
Q 30.078125 56 35.796875 56 
Q 45.21875 56 50.046875 50.171875 
Q 54.890625 44.34375 54.890625 33.015625 
z
" id="DejaVuSans-110"/>
      <path id="DejaVuSans-32"/>
      <path d="M 56.203125 29.59375 
L 56.203125 25.203125 
L 14.890625 25.203125 
Q 15.484375 15.921875 20.484375 11.0625 
Q 25.484375 6.203125 34.421875 6.203125 
Q 39.59375 6.203125 44.453125 7.46875 
Q 49.3125 8.734375 54.109375 11.28125 
L 54.109375 2.78125 
Q 49.265625 0.734375 44.1875 -0.34375 
Q 39.109375 -1.421875 33.890625 -1.421875 
Q 20.796875 -1.421875 13.15625 6.1875 
Q 5.515625 13.8125 5.515625 26.8125 
Q 5.515625 40.234375 12.765625 48.109375 
Q 20.015625 56 32.328125 56 
Q 43.359375 56 49.78125 48.890625 
Q 56.203125 41.796875 56.203125 29.59375 
z
M 47.21875 32.234375 
Q 47.125 39.59375 43.09375 43.984375 
Q 39.0625 48.390625 32.421875 48.390625 
Q 24.90625 48.390625 20.390625 44.140625 
Q 15.875 39.890625 15.1875 32.171875 
z
" id="DejaVuSans-101"/>
      <path d="M 42.28125 54.6875 
L 40.921875 47.703125 
L 23 47.703125 
L 17.1875 18.015625 
Q 16.890625 16.359375 16.75 15.234375 
Q 16.609375 14.109375 16.609375 13.484375 
Q 16.609375 10.359375 18.484375 8.9375 
Q 20.359375 7.515625 24.515625 7.515625 
L 33.59375 7.515625 
L 32.078125 0 
L 23.484375 0 
Q 15.484375 0 11.546875 3.125 
Q 7.625 6.25 7.625 12.59375 
Q 7.625 13.71875 7.765625 15.0625 
Q 7.90625 16.40625 8.203125 18.015625 
L 14.015625 47.703125 
L 6.390625 47.703125 
L 7.8125 54.6875 
L 15.28125 54.6875 
L 18.3125 70.21875 
L 27.296875 70.21875 
L 24.3125 54.6875 
z
" id="DejaVuSans-Oblique-116"/>
     </defs>
     <g transform="translate(135.685853 173.765729)scale(0.1 -0.1)">
      <use transform="translate(0 0.015625)" xlink:href="#DejaVuSans-83"/>
      <use transform="translate(63.476562 0.015625)" xlink:href="#DejaVuSans-105"/>
      <use transform="translate(91.259766 0.015625)" xlink:href="#DejaVuSans-109"/>
      <use transform="translate(188.671875 0.015625)" xlink:href="#DejaVuSans-117"/>
      <use transform="translate(252.050781 0.015625)" xlink:href="#DejaVuSans-108"/>
      <use transform="translate(279.833984 0.015625)" xlink:href="#DejaVuSans-97"/>
      <use transform="translate(341.113281 0.015625)" xlink:href="#DejaVuSans-116"/>
      <use transform="translate(380.322266 0.015625)" xlink:href="#DejaVuSans-105"/>
      <use transform="translate(408.105469 0.015625)" xlink:href="#DejaVuSans-111"/>
      <use transform="translate(469.287109 0.015625)" xlink:href="#DejaVuSans-110"/>
      <use transform="translate(532.666016 0.015625)" xlink:href="#DejaVuSans-32"/>
      <use transform="translate(564.453125 0.015625)" xlink:href="#DejaVuSans-116"/>
      <use transform="translate(603.662109 0.015625)" xlink:href="#DejaVuSans-105"/>
      <use transform="translate(631.445312 0.015625)" xlink:href="#DejaVuSans-109"/>
      <use transform="translate(728.857422 0.015625)" xlink:href="#DejaVuSans-101"/>
      <use transform="translate(790.380859 0.015625)" xlink:href="#DejaVuSans-32"/>
      <use transform="translate(822.167969 0.015625)" xlink:href="#DejaVuSans-Oblique-116"/>
     </g>
    </g>
   </g>
   <g id="matplotlib.axis_2">
    <g id="ytick_1">
     <g id="line2d_4">
      <defs>
       <path d="M 0 0 
L -3.5 0 
" id="m029252b70c" style="stroke:#000000;stroke-width:0.8;"/>
      </defs>
      <g>
       <use style="stroke:#000000;stroke-width:0.8;" x="100.424706" xlink:href="#m029252b70c" y="131.002103"/>
      </g>
     </g>
     <g id="text_5">
      <!-- 1.253 -->
      <defs>
       <path d="M 12.40625 8.296875 
L 28.515625 8.296875 
L 28.515625 63.921875 
L 10.984375 60.40625 
L 10.984375 69.390625 
L 28.421875 72.90625 
L 38.28125 72.90625 
L 38.28125 8.296875 
L 54.390625 8.296875 
L 54.390625 0 
L 12.40625 0 
z
" id="DejaVuSans-49"/>
       <path d="M 10.6875 12.40625 
L 21 12.40625 
L 21 0 
L 10.6875 0 
z
" id="DejaVuSans-46"/>
       <path d="M 10.796875 72.90625 
L 49.515625 72.90625 
L 49.515625 64.59375 
L 19.828125 64.59375 
L 19.828125 46.734375 
Q 21.96875 47.46875 24.109375 47.828125 
Q 26.265625 48.1875 28.421875 48.1875 
Q 40.625 48.1875 47.75 41.5 
Q 54.890625 34.8125 54.890625 23.390625 
Q 54.890625 11.625 47.5625 5.09375 
Q 40.234375 -1.421875 26.90625 -1.421875 
Q 22.3125 -1.421875 17.546875 -0.640625 
Q 12.796875 0.140625 7.71875 1.703125 
L 7.71875 11.625 
Q 12.109375 9.234375 16.796875 8.0625 
Q 21.484375 6.890625 26.703125 6.890625 
Q 35.15625 6.890625 40.078125 11.328125 
Q 45.015625 15.765625 45.015625 23.390625 
Q 45.015625 31 40.078125 35.4375 
Q 35.15625 39.890625 26.703125 39.890625 
Q 22.75 39.890625 18.8125 39.015625 
Q 14.890625 38.140625 10.796875 36.28125 
z
" id="DejaVuSans-53"/>
       <path d="M 40.578125 39.3125 
Q 47.65625 37.796875 51.625 33 
Q 55.609375 28.21875 55.609375 21.1875 
Q 55.609375 10.40625 48.1875 4.484375 
Q 40.765625 -1.421875 27.09375 -1.421875 
Q 22.515625 -1.421875 17.65625 -0.515625 
Q 12.796875 0.390625 7.625 2.203125 
L 7.625 11.71875 
Q 11.71875 9.328125 16.59375 8.109375 
Q 21.484375 6.890625 26.8125 6.890625 
Q 36.078125 6.890625 40.9375 10.546875 
Q 45.796875 14.203125 45.796875 21.1875 
Q 45.796875 27.640625 41.28125 31.265625 
Q 36.765625 34.90625 28.71875 34.90625 
L 20.21875 34.90625 
L 20.21875 43.015625 
L 29.109375 43.015625 
Q 36.375 43.015625 40.234375 45.921875 
Q 44.09375 48.828125 44.09375 54.296875 
Q 44.09375 59.90625 40.109375 62.90625 
Q 36.140625 65.921875 28.71875 65.921875 
Q 24.65625 65.921875 20.015625 65.03125 
Q 15.375 64.15625 9.8125 62.3125 
L 9.8125 71.09375 
Q 15.4375 72.65625 20.34375 73.4375 
Q 25.25 74.21875 29.59375 74.21875 
Q 40.828125 74.21875 47.359375 69.109375 
Q 53.90625 64.015625 53.90625 55.328125 
Q 53.90625 49.265625 50.4375 45.09375 
Q 46.96875 40.921875 40.578125 39.3125 
z
" id="DejaVuSans-51"/>
      </defs>
      <g transform="translate(64.796581 134.801322)scale(0.1 -0.1)">
       <use xlink:href="#DejaVuSans-49"/>
       <use x="63.623047" xlink:href="#DejaVuSans-46"/>
       <use x="95.410156" xlink:href="#DejaVuSans-50"/>
       <use x="159.033203" xlink:href="#DejaVuSans-53"/>
       <use x="222.65625" xlink:href="#DejaVuSans-51"/>
      </g>
     </g>
    </g>
    <g id="ytick_2">
     <g id="line2d_5">
      <g>
       <use style="stroke:#000000;stroke-width:0.8;" x="100.424706" xlink:href="#m029252b70c" y="102.70951"/>
      </g>
     </g>
     <g id="text_6">
      <!-- 1.254 -->
      <g transform="translate(64.796581 106.508729)scale(0.1 -0.1)">
       <use xlink:href="#DejaVuSans-49"/>
       <use x="63.623047" xlink:href="#DejaVuSans-46"/>
       <use x="95.410156" xlink:href="#DejaVuSans-50"/>
       <use x="159.033203" xlink:href="#DejaVuSans-53"/>
       <use x="222.65625" xlink:href="#DejaVuSans-52"/>
      </g>
     </g>
    </g>
    <g id="ytick_3">
     <g id="line2d_6">
      <g>
       <use style="stroke:#000000;stroke-width:0.8;" x="100.424706" xlink:href="#m029252b70c" y="74.416917"/>
      </g>
     </g>
     <g id="text_7">
      <!-- 1.255 -->
      <g transform="translate(64.796581 78.216136)scale(0.1 -0.1)">
       <use xlink:href="#DejaVuSans-49"/>
       <use x="63.623047" xlink:href="#DejaVuSans-46"/>
       <use x="95.410156" xlink:href="#DejaVuSans-50"/>
       <use x="159.033203" xlink:href="#DejaVuSans-53"/>
       <use x="222.65625" xlink:href="#DejaVuSans-53"/>
      </g>
     </g>
    </g>
    <g id="ytick_4">
     <g id="line2d_7">
      <g>
       <use style="stroke:#000000;stroke-width:0.8;" x="100.424706" xlink:href="#m029252b70c" y="46.124324"/>
      </g>
     </g>
     <g id="text_8">
      <!-- 1.256 -->
      <defs>
       <path d="M 33.015625 40.375 
Q 26.375 40.375 22.484375 35.828125 
Q 18.609375 31.296875 18.609375 23.390625 
Q 18.609375 15.53125 22.484375 10.953125 
Q 26.375 6.390625 33.015625 6.390625 
Q 39.65625 6.390625 43.53125 10.953125 
Q 47.40625 15.53125 47.40625 23.390625 
Q 47.40625 31.296875 43.53125 35.828125 
Q 39.65625 40.375 33.015625 40.375 
z
M 52.59375 71.296875 
L 52.59375 62.3125 
Q 48.875 64.0625 45.09375 64.984375 
Q 41.3125 65.921875 37.59375 65.921875 
Q 27.828125 65.921875 22.671875 59.328125 
Q 17.53125 52.734375 16.796875 39.40625 
Q 19.671875 43.65625 24.015625 45.921875 
Q 28.375 48.1875 33.59375 48.1875 
Q 44.578125 48.1875 50.953125 41.515625 
Q 57.328125 34.859375 57.328125 23.390625 
Q 57.328125 12.15625 50.6875 5.359375 
Q 44.046875 -1.421875 33.015625 -1.421875 
Q 20.359375 -1.421875 13.671875 8.265625 
Q 6.984375 17.96875 6.984375 36.375 
Q 6.984375 53.65625 15.1875 63.9375 
Q 23.390625 74.21875 37.203125 74.21875 
Q 40.921875 74.21875 44.703125 73.484375 
Q 48.484375 72.75 52.59375 71.296875 
z
" id="DejaVuSans-54"/>
      </defs>
      <g transform="translate(64.796581 49.923542)scale(0.1 -0.1)">
       <use xlink:href="#DejaVuSans-49"/>
       <use x="63.623047" xlink:href="#DejaVuSans-46"/>
       <use x="95.410156" xlink:href="#DejaVuSans-50"/>
       <use x="159.033203" xlink:href="#DejaVuSans-53"/>
       <use x="222.65625" xlink:href="#DejaVuSans-54"/>
      </g>
     </g>
    </g>
    <g id="text_9">
     <!-- $S_{max}$ -->
     <defs>
      <path d="M 60.296875 70.515625 
L 58.40625 60.890625 
Q 53.46875 63.53125 48.609375 64.875 
Q 43.75 66.21875 39.203125 66.21875 
Q 30.375 66.21875 25.140625 62.359375 
Q 19.921875 58.5 19.921875 52.09375 
Q 19.921875 48.578125 21.84375 46.703125 
Q 23.78125 44.828125 31.78125 42.671875 
L 37.703125 41.21875 
Q 47.703125 38.625 51.609375 34.640625 
Q 55.515625 30.671875 55.515625 23.484375 
Q 55.515625 12.453125 46.84375 5.515625 
Q 38.1875 -1.421875 24.03125 -1.421875 
Q 18.21875 -1.421875 12.359375 -0.265625 
Q 6.5 0.875 0.59375 3.21875 
L 2.59375 13.375 
Q 8.015625 10.015625 13.453125 8.296875 
Q 18.890625 6.59375 24.3125 6.59375 
Q 33.546875 6.59375 39.109375 10.6875 
Q 44.671875 14.796875 44.671875 21.390625 
Q 44.671875 25.78125 42.453125 28.046875 
Q 40.234375 30.328125 32.90625 32.171875 
L 27 33.6875 
Q 16.890625 36.328125 13.203125 39.765625 
Q 9.515625 43.21875 9.515625 49.421875 
Q 9.515625 60.296875 17.890625 67.25 
Q 26.265625 74.21875 39.703125 74.21875 
Q 44.921875 74.21875 50.046875 73.28125 
Q 55.171875 72.359375 60.296875 70.515625 
z
" id="DejaVuSans-Oblique-83"/>
      <path d="M 89.796875 33.015625 
L 83.40625 0 
L 74.421875 0 
L 80.71875 32.71875 
Q 81.109375 34.8125 81.296875 36.328125 
Q 81.5 37.84375 81.5 38.921875 
Q 81.5 43.3125 79.046875 45.75 
Q 76.609375 48.1875 72.21875 48.1875 
Q 65.671875 48.1875 60.546875 43.28125 
Q 55.421875 38.375 53.90625 30.515625 
L 47.90625 0 
L 38.921875 0 
L 45.3125 32.71875 
Q 45.703125 34.515625 45.890625 36.046875 
Q 46.09375 37.59375 46.09375 38.8125 
Q 46.09375 43.265625 43.65625 45.71875 
Q 41.21875 48.1875 36.921875 48.1875 
Q 30.28125 48.1875 25.140625 43.28125 
Q 20.015625 38.375 18.5 30.515625 
L 12.5 0 
L 3.515625 0 
L 14.203125 54.6875 
L 23.1875 54.6875 
L 21.484375 46.1875 
Q 25.140625 50.984375 30.046875 53.484375 
Q 34.96875 56 40.578125 56 
Q 46.53125 56 50.359375 52.875 
Q 54.203125 49.75 54.984375 44.1875 
Q 59.078125 49.953125 64.46875 52.96875 
Q 69.875 56 75.875 56 
Q 82.90625 56 86.734375 51.953125 
Q 90.578125 47.90625 90.578125 40.484375 
Q 90.578125 38.875 90.375 36.9375 
Q 90.1875 35.015625 89.796875 33.015625 
z
" id="DejaVuSans-Oblique-109"/>
      <path d="M 53.71875 31.203125 
L 47.609375 0 
L 38.625 0 
L 40.28125 8.296875 
Q 36.328125 3.421875 31.265625 1 
Q 26.21875 -1.421875 20.015625 -1.421875 
Q 13.03125 -1.421875 8.5625 2.84375 
Q 4.109375 7.125 4.109375 13.8125 
Q 4.109375 23.390625 11.75 28.953125 
Q 19.390625 34.515625 32.8125 34.515625 
L 45.3125 34.515625 
L 45.796875 36.921875 
Q 45.90625 37.3125 45.953125 37.765625 
Q 46 38.234375 46 39.203125 
Q 46 43.5625 42.453125 45.96875 
Q 38.921875 48.390625 32.515625 48.390625 
Q 28.125 48.390625 23.5 47.265625 
Q 18.890625 46.140625 14.015625 43.890625 
L 15.578125 52.203125 
Q 20.65625 54.109375 25.515625 55.046875 
Q 30.375 56 34.90625 56 
Q 44.578125 56 49.625 51.796875 
Q 54.6875 47.609375 54.6875 39.59375 
Q 54.6875 37.984375 54.4375 35.8125 
Q 54.203125 33.640625 53.71875 31.203125 
z
M 44 27.484375 
L 35.015625 27.484375 
Q 23.96875 27.484375 18.671875 24.53125 
Q 13.375 21.578125 13.375 15.375 
Q 13.375 11.078125 16.078125 8.640625 
Q 18.796875 6.203125 23.578125 6.203125 
Q 30.90625 6.203125 36.375 11.453125 
Q 41.84375 16.703125 43.609375 25.484375 
z
" id="DejaVuSans-Oblique-97"/>
      <path d="M 60.015625 54.6875 
L 34.90625 27.875 
L 50.296875 0 
L 39.984375 0 
L 28.421875 21.6875 
L 8.296875 0 
L -2.59375 0 
L 24.3125 28.8125 
L 10.015625 54.6875 
L 20.3125 54.6875 
L 30.8125 34.90625 
L 49.125 54.6875 
z
" id="DejaVuSans-Oblique-120"/>
     </defs>
     <g transform="translate(58.716894 97.437583)rotate(-90)scale(0.1 -0.1)">
      <use transform="translate(0 0.78125)" xlink:href="#DejaVuSans-Oblique-83"/>
      <use transform="translate(63.476562 -15.625)scale(0.7)" xlink:href="#DejaVuSans-Oblique-109"/>
      <use transform="translate(131.665039 -15.625)scale(0.7)" xlink:href="#DejaVuSans-Oblique-97"/>
      <use transform="translate(174.560547 -15.625)scale(0.7)" xlink:href="#DejaVuSans-Oblique-120"/>
     </g>
    </g>
   </g>
   <g id="line2d_8">
    <path clip-path="url(#pcf85dc0d29)" d="M 107.548447 32.84978 
L 110.516672 52.303186 
L 113.484897 59.44719 
L 116.453123 56.883947 
L 119.421348 93.806484 
L 122.389573 123.358211 
L 125.357798 133.44387 
L 128.326024 125.052634 
L 131.294249 115.378623 
L 134.262474 111.886308 
L 137.230699 111.501678 
L 140.198925 126.074813 
L 143.16715 137.119364 
L 146.135375 139.646747 
L 149.103601 134.67234 
L 152.071826 126.563486 
L 155.040051 122.627552 
L 158.008276 117.242949 
L 160.976502 112.319026 
L 163.944727 108.258382 
L 166.912952 108.277169 
L 169.881177 112.411943 
L 172.849403 116.914057 
L 175.817628 121.889893 
L 178.785853 128.284615 
L 181.754078 134.020739 
L 184.722304 140.125386 
L 187.690529 138.260056 
L 190.658754 134.81488 
L 193.626979 131.666814 
L 196.595205 128.458055 
L 199.56343 125.126431 
L 202.531655 121.650684 
L 205.49988 118.203274 
L 208.468106 114.760031 
L 211.436331 111.574108 
L 214.404556 110.696957 
L 217.372782 111.597587 
L 220.341007 113.002017 
L 223.309232 114.693874 
L 226.277457 116.560832 
L 229.245683 118.538543 
L 232.213908 120.57321 
L 235.182133 122.663957 
L 238.150358 124.790575 
L 241.118584 126.916512 
L 244.086809 129.034801 
L 247.055034 131.143883 
L 250.023259 132.368391 
" style="fill:none;stroke:#000000;stroke-linecap:square;stroke-width:1.5;"/>
    <defs>
     <path d="M -3 3 
L 3 -3 
M -3 -3 
L 3 3 
" id="m58498073e7" style="stroke:#000000;"/>
    </defs>
    <g clip-path="url(#pcf85dc0d29)">
     <use style="stroke:#000000;" x="107.548447" xlink:href="#m58498073e7" y="32.84978"/>
     <use style="stroke:#000000;" x="110.516672" xlink:href="#m58498073e7" y="52.303186"/>
     <use style="stroke:#000000;" x="113.484897" xlink:href="#m58498073e7" y="59.44719"/>
     <use style="stroke:#000000;" x="116.453123" xlink:href="#m58498073e7" y="56.883947"/>
     <use style="stroke:#000000;" x="119.421348" xlink:href="#m58498073e7" y="93.806484"/>
     <use style="stroke:#000000;" x="122.389573" xlink:href="#m58498073e7" y="123.358211"/>
     <use style="stroke:#000000;" x="125.357798" xlink:href="#m58498073e7" y="133.44387"/>
     <use style="stroke:#000000;" x="128.326024" xlink:href="#m58498073e7" y="125.052634"/>
     <use style="stroke:#000000;" x="131.294249" xlink:href="#m58498073e7" y="115.378623"/>
     <use style="stroke:#000000;" x="134.262474" xlink:href="#m58498073e7" y="111.886308"/>
     <use style="stroke:#000000;" x="137.230699" xlink:href="#m58498073e7" y="111.501678"/>
     <use style="stroke:#000000;" x="140.198925" xlink:href="#m58498073e7" y="126.074813"/>
     <use style="stroke:#000000;" x="143.16715" xlink:href="#m58498073e7" y="137.119364"/>
     <use style="stroke:#000000;" x="146.135375" xlink:href="#m58498073e7" y="139.646747"/>
     <use style="stroke:#000000;" x="149.103601" xlink:href="#m58498073e7" y="134.67234"/>
     <use style="stroke:#000000;" x="152.071826" xlink:href="#m58498073e7" y="126.563486"/>
     <use style="stroke:#000000;" x="155.040051" xlink:href="#m58498073e7" y="122.627552"/>
     <use style="stroke:#000000;" x="158.008276" xlink:href="#m58498073e7" y="117.242949"/>
     <use style="stroke:#000000;" x="160.976502" xlink:href="#m58498073e7" y="112.319026"/>
     <use style="stroke:#000000;" x="163.944727" xlink:href="#m58498073e7" y="108.258382"/>
     <use style="stroke:#000000;" x="166.912952" xlink:href="#m58498073e7" y="108.277169"/>
     <use style="stroke:#000000;" x="169.881177" xlink:href="#m58498073e7" y="112.411943"/>
     <use style="stroke:#000000;" x="172.849403" xlink:href="#m58498073e7" y="116.914057"/>
     <use style="stroke:#000000;" x="175.817628" xlink:href="#m58498073e7" y="121.889893"/>
     <use style="stroke:#000000;" x="178.785853" xlink:href="#m58498073e7" y="128.284615"/>
     <use style="stroke:#000000;" x="181.754078" xlink:href="#m58498073e7" y="134.020739"/>
     <use style="stroke:#000000;" x="184.722304" xlink:href="#m58498073e7" y="140.125386"/>
     <use style="stroke:#000000;" x="187.690529" xlink:href="#m58498073e7" y="138.260056"/>
     <use style="stroke:#000000;" x="190.658754" xlink:href="#m58498073e7" y="134.81488"/>
     <use style="stroke:#000000;" x="193.626979" xlink:href="#m58498073e7" y="131.666814"/>
     <use style="stroke:#000000;" x="196.595205" xlink:href="#m58498073e7" y="128.458055"/>
     <use style="stroke:#000000;" x="199.56343" xlink:href="#m58498073e7" y="125.126431"/>
     <use style="stroke:#000000;" x="202.531655" xlink:href="#m58498073e7" y="121.650684"/>
     <use style="stroke:#000000;" x="205.49988" xlink:href="#m58498073e7" y="118.203274"/>
     <use style="stroke:#000000;" x="208.468106" xlink:href="#m58498073e7" y="114.760031"/>
     <use style="stroke:#000000;" x="211.436331" xlink:href="#m58498073e7" y="111.574108"/>
     <use style="stroke:#000000;" x="214.404556" xlink:href="#m58498073e7" y="110.696957"/>
     <use style="stroke:#000000;" x="217.372782" xlink:href="#m58498073e7" y="111.597587"/>
     <use style="stroke:#000000;" x="220.341007" xlink:href="#m58498073e7" y="113.002017"/>
     <use style="stroke:#000000;" x="223.309232" xlink:href="#m58498073e7" y="114.693874"/>
     <use style="stroke:#000000;" x="226.277457" xlink:href="#m58498073e7" y="116.560832"/>
     <use style="stroke:#000000;" x="229.245683" xlink:href="#m58498073e7" y="118.538543"/>
     <use style="stroke:#000000;" x="232.213908" xlink:href="#m58498073e7" y="120.57321"/>
     <use style="stroke:#000000;" x="235.182133" xlink:href="#m58498073e7" y="122.663957"/>
     <use style="stroke:#000000;" x="238.150358" xlink:href="#m58498073e7" y="124.790575"/>
     <use style="stroke:#000000;" x="241.118584" xlink:href="#m58498073e7" y="126.916512"/>
     <use style="stroke:#000000;" x="244.086809" xlink:href="#m58498073e7" y="129.034801"/>
     <use style="stroke:#000000;" x="247.055034" xlink:href="#m58498073e7" y="131.143883"/>
     <use style="stroke:#000000;" x="250.023259" xlink:href="#m58498073e7" y="132.368391"/>
    </g>
   </g>
   <g id="patch_3">
    <path d="M 100.424706 145.489167 
L 100.424706 27.486 
" style="fill:none;stroke:#000000;stroke-linecap:square;stroke-linejoin:miter;stroke-width:0.8;"/>
   </g>
   <g id="patch_4">
    <path d="M 257.147 145.489167 
L 257.147 27.486 
" style="fill:none;stroke:#000000;stroke-linecap:square;stroke-linejoin:miter;stroke-width:0.8;"/>
   </g>
   <g id="patch_5">
    <path d="M 100.424706 145.489167 
L 257.147 145.489167 
" style="fill:none;stroke:#000000;stroke-linecap:square;stroke-linejoin:miter;stroke-width:0.8;"/>
   </g>
   <g id="patch_6">
    <path d="M 100.424706 27.486 
L 257.147 27.486 
" style="fill:none;stroke:#000000;stroke-linecap:square;stroke-linejoin:miter;stroke-width:0.8;"/>
   </g>
   <g id="text_10">
    <!-- 64 -->
    <g transform="translate(171.150853 21.486)scale(0.12 -0.12)">
     <use xlink:href="#DejaVuSans-54"/>
     <use x="63.623047" xlink:href="#DejaVuSans-52"/>
    </g>
   </g>
  </g>
  <g id="axes_2">
   <g id="patch_7">
    <path d="M 346.968394 145.489167 
L 503.690687 145.489167 
L 503.690687 27.486 
L 346.968394 27.486 
z
" style="fill:#ffffff;"/>
   </g>
   <g id="matplotlib.axis_3">
    <g id="xtick_4">
     <g id="line2d_9">
      <g>
       <use style="stroke:#000000;stroke-width:0.8;" x="351.123909" xlink:href="#m89fb5daf48" y="145.489167"/>
      </g>
     </g>
     <g id="text_11">
      <!-- 0 -->
      <g transform="translate(347.942659 160.087604)scale(0.1 -0.1)">
       <use xlink:href="#DejaVuSans-48"/>
      </g>
     </g>
    </g>
    <g id="xtick_5">
     <g id="line2d_10">
      <g>
       <use style="stroke:#000000;stroke-width:0.8;" x="410.488414" xlink:href="#m89fb5daf48" y="145.489167"/>
      </g>
     </g>
     <g id="text_12">
      <!-- 2 -->
      <g transform="translate(407.307164 160.087604)scale(0.1 -0.1)">
       <use xlink:href="#DejaVuSans-50"/>
      </g>
     </g>
    </g>
    <g id="xtick_6">
     <g id="line2d_11">
      <g>
       <use style="stroke:#000000;stroke-width:0.8;" x="469.85292" xlink:href="#m89fb5daf48" y="145.489167"/>
      </g>
     </g>
     <g id="text_13">
      <!-- 4 -->
      <g transform="translate(466.67167 160.087604)scale(0.1 -0.1)">
       <use xlink:href="#DejaVuSans-52"/>
      </g>
     </g>
    </g>
    <g id="text_14">
     <!-- Simulation time $t$ -->
     <g transform="translate(382.229541 173.765729)scale(0.1 -0.1)">
      <use transform="translate(0 0.015625)" xlink:href="#DejaVuSans-83"/>
      <use transform="translate(63.476562 0.015625)" xlink:href="#DejaVuSans-105"/>
      <use transform="translate(91.259766 0.015625)" xlink:href="#DejaVuSans-109"/>
      <use transform="translate(188.671875 0.015625)" xlink:href="#DejaVuSans-117"/>
      <use transform="translate(252.050781 0.015625)" xlink:href="#DejaVuSans-108"/>
      <use transform="translate(279.833984 0.015625)" xlink:href="#DejaVuSans-97"/>
      <use transform="translate(341.113281 0.015625)" xlink:href="#DejaVuSans-116"/>
      <use transform="translate(380.322266 0.015625)" xlink:href="#DejaVuSans-105"/>
      <use transform="translate(408.105469 0.015625)" xlink:href="#DejaVuSans-111"/>
      <use transform="translate(469.287109 0.015625)" xlink:href="#DejaVuSans-110"/>
      <use transform="translate(532.666016 0.015625)" xlink:href="#DejaVuSans-32"/>
      <use transform="translate(564.453125 0.015625)" xlink:href="#DejaVuSans-116"/>
      <use transform="translate(603.662109 0.015625)" xlink:href="#DejaVuSans-105"/>
      <use transform="translate(631.445312 0.015625)" xlink:href="#DejaVuSans-109"/>
      <use transform="translate(728.857422 0.015625)" xlink:href="#DejaVuSans-101"/>
      <use transform="translate(790.380859 0.015625)" xlink:href="#DejaVuSans-32"/>
      <use transform="translate(822.167969 0.015625)" xlink:href="#DejaVuSans-Oblique-116"/>
     </g>
    </g>
   </g>
   <g id="matplotlib.axis_4">
    <g id="ytick_5">
     <g id="line2d_12">
      <g>
       <use style="stroke:#000000;stroke-width:0.8;" x="346.968394" xlink:href="#m029252b70c" y="120.374639"/>
      </g>
     </g>
     <g id="text_15">
      <!-- 2.55 -->
      <g transform="translate(317.702769 124.173858)scale(0.1 -0.1)">
       <use xlink:href="#DejaVuSans-50"/>
       <use x="63.623047" xlink:href="#DejaVuSans-46"/>
       <use x="95.410156" xlink:href="#DejaVuSans-53"/>
       <use x="159.033203" xlink:href="#DejaVuSans-53"/>
      </g>
     </g>
    </g>
    <g id="ytick_6">
     <g id="line2d_13">
      <g>
       <use style="stroke:#000000;stroke-width:0.8;" x="346.968394" xlink:href="#m029252b70c" y="94.031619"/>
      </g>
     </g>
     <g id="text_16">
      <!-- 2.60 -->
      <g transform="translate(317.702769 97.830838)scale(0.1 -0.1)">
       <use xlink:href="#DejaVuSans-50"/>
       <use x="63.623047" xlink:href="#DejaVuSans-46"/>
       <use x="95.410156" xlink:href="#DejaVuSans-54"/>
       <use x="159.033203" xlink:href="#DejaVuSans-48"/>
      </g>
     </g>
    </g>
    <g id="ytick_7">
     <g id="line2d_14">
      <g>
       <use style="stroke:#000000;stroke-width:0.8;" x="346.968394" xlink:href="#m029252b70c" y="67.688599"/>
      </g>
     </g>
     <g id="text_17">
      <!-- 2.65 -->
      <g transform="translate(317.702769 71.487817)scale(0.1 -0.1)">
       <use xlink:href="#DejaVuSans-50"/>
       <use x="63.623047" xlink:href="#DejaVuSans-46"/>
       <use x="95.410156" xlink:href="#DejaVuSans-54"/>
       <use x="159.033203" xlink:href="#DejaVuSans-53"/>
      </g>
     </g>
    </g>
    <g id="ytick_8">
     <g id="line2d_15">
      <g>
       <use style="stroke:#000000;stroke-width:0.8;" x="346.968394" xlink:href="#m029252b70c" y="41.345578"/>
      </g>
     </g>
     <g id="text_18">
      <!-- 2.70 -->
      <defs>
       <path d="M 8.203125 72.90625 
L 55.078125 72.90625 
L 55.078125 68.703125 
L 28.609375 0 
L 18.3125 0 
L 43.21875 64.59375 
L 8.203125 64.59375 
z
" id="DejaVuSans-55"/>
      </defs>
      <g transform="translate(317.702769 45.144797)scale(0.1 -0.1)">
       <use xlink:href="#DejaVuSans-50"/>
       <use x="63.623047" xlink:href="#DejaVuSans-46"/>
       <use x="95.410156" xlink:href="#DejaVuSans-55"/>
       <use x="159.033203" xlink:href="#DejaVuSans-48"/>
      </g>
     </g>
    </g>
    <g id="text_19">
     <!-- $S_{max}$ -->
     <g transform="translate(311.623081 97.437583)rotate(-90)scale(0.1 -0.1)">
      <use transform="translate(0 0.78125)" xlink:href="#DejaVuSans-Oblique-83"/>
      <use transform="translate(63.476562 -15.625)scale(0.7)" xlink:href="#DejaVuSans-Oblique-109"/>
      <use transform="translate(131.665039 -15.625)scale(0.7)" xlink:href="#DejaVuSans-Oblique-97"/>
      <use transform="translate(174.560547 -15.625)scale(0.7)" xlink:href="#DejaVuSans-Oblique-120"/>
     </g>
    </g>
   </g>
   <g id="line2d_16">
    <path clip-path="url(#pef67981b30)" d="M 354.092134 140.125386 
L 357.06036 133.040999 
L 360.028585 133.007253 
L 362.99681 127.192261 
L 365.965035 124.291269 
L 368.933261 125.745393 
L 371.901486 127.630752 
L 374.869711 131.764406 
L 377.837936 133.700001 
L 380.806162 135.285285 
L 383.774387 135.792137 
L 386.742612 134.238259 
L 389.710837 131.439267 
L 392.679063 127.199553 
L 395.647288 121.04318 
L 398.615513 111.124159 
L 401.583739 99.336123 
L 404.551964 84.862411 
L 407.520189 69.713093 
L 410.488414 53.465442 
L 413.45664 41.822125 
L 416.424865 34.202757 
L 419.39309 32.84978 
L 422.361315 38.126028 
L 425.329541 43.707961 
L 428.297766 45.935275 
L 431.265991 49.904724 
L 434.234216 59.801103 
L 437.202442 66.912385 
L 440.170667 71.691647 
L 443.138892 71.927773 
L 446.107117 63.418169 
L 449.075343 57.391399 
L 452.043568 53.437834 
L 455.011793 52.345792 
L 457.980018 56.977616 
L 460.948244 57.394643 
L 463.916469 57.420378 
L 466.884694 61.537459 
L 469.85292 65.564611 
L 472.821145 70.216219 
L 475.78937 73.247834 
L 478.757595 70.764871 
L 481.725821 69.336119 
L 484.694046 67.881033 
L 487.662271 66.785964 
L 490.630496 67.4055 
L 493.598722 67.246791 
L 496.566947 67.440784 
" style="fill:none;stroke:#000000;stroke-linecap:square;stroke-width:1.5;"/>
    <g clip-path="url(#pef67981b30)">
     <use style="stroke:#000000;" x="354.092134" xlink:href="#m58498073e7" y="140.125386"/>
     <use style="stroke:#000000;" x="357.06036" xlink:href="#m58498073e7" y="133.040999"/>
     <use style="stroke:#000000;" x="360.028585" xlink:href="#m58498073e7" y="133.007253"/>
     <use style="stroke:#000000;" x="362.99681" xlink:href="#m58498073e7" y="127.192261"/>
     <use style="stroke:#000000;" x="365.965035" xlink:href="#m58498073e7" y="124.291269"/>
     <use style="stroke:#000000;" x="368.933261" xlink:href="#m58498073e7" y="125.745393"/>
     <use style="stroke:#000000;" x="371.901486" xlink:href="#m58498073e7" y="127.630752"/>
     <use style="stroke:#000000;" x="374.869711" xlink:href="#m58498073e7" y="131.764406"/>
     <use style="stroke:#000000;" x="377.837936" xlink:href="#m58498073e7" y="133.700001"/>
     <use style="stroke:#000000;" x="380.806162" xlink:href="#m58498073e7" y="135.285285"/>
     <use style="stroke:#000000;" x="383.774387" xlink:href="#m58498073e7" y="135.792137"/>
     <use style="stroke:#000000;" x="386.742612" xlink:href="#m58498073e7" y="134.238259"/>
     <use style="stroke:#000000;" x="389.710837" xlink:href="#m58498073e7" y="131.439267"/>
     <use style="stroke:#000000;" x="392.679063" xlink:href="#m58498073e7" y="127.199553"/>
     <use style="stroke:#000000;" x="395.647288" xlink:href="#m58498073e7" y="121.04318"/>
     <use style="stroke:#000000;" x="398.615513" xlink:href="#m58498073e7" y="111.124159"/>
     <use style="stroke:#000000;" x="401.583739" xlink:href="#m58498073e7" y="99.336123"/>
     <use style="stroke:#000000;" x="404.551964" xlink:href="#m58498073e7" y="84.862411"/>
     <use style="stroke:#000000;" x="407.520189" xlink:href="#m58498073e7" y="69.713093"/>
     <use style="stroke:#000000;" x="410.488414" xlink:href="#m58498073e7" y="53.465442"/>
     <use style="stroke:#000000;" x="413.45664" xlink:href="#m58498073e7" y="41.822125"/>
     <use style="stroke:#000000;" x="416.424865" xlink:href="#m58498073e7" y="34.202757"/>
     <use style="stroke:#000000;" x="419.39309" xlink:href="#m58498073e7" y="32.84978"/>
     <use style="stroke:#000000;" x="422.361315" xlink:href="#m58498073e7" y="38.126028"/>
     <use style="stroke:#000000;" x="425.329541" xlink:href="#m58498073e7" y="43.707961"/>
     <use style="stroke:#000000;" x="428.297766" xlink:href="#m58498073e7" y="45.935275"/>
     <use style="stroke:#000000;" x="431.265991" xlink:href="#m58498073e7" y="49.904724"/>
     <use style="stroke:#000000;" x="434.234216" xlink:href="#m58498073e7" y="59.801103"/>
     <use style="stroke:#000000;" x="437.202442" xlink:href="#m58498073e7" y="66.912385"/>
     <use style="stroke:#000000;" x="440.170667" xlink:href="#m58498073e7" y="71.691647"/>
     <use style="stroke:#000000;" x="443.138892" xlink:href="#m58498073e7" y="71.927773"/>
     <use style="stroke:#000000;" x="446.107117" xlink:href="#m58498073e7" y="63.418169"/>
     <use style="stroke:#000000;" x="449.075343" xlink:href="#m58498073e7" y="57.391399"/>
     <use style="stroke:#000000;" x="452.043568" xlink:href="#m58498073e7" y="53.437834"/>
     <use style="stroke:#000000;" x="455.011793" xlink:href="#m58498073e7" y="52.345792"/>
     <use style="stroke:#000000;" x="457.980018" xlink:href="#m58498073e7" y="56.977616"/>
     <use style="stroke:#000000;" x="460.948244" xlink:href="#m58498073e7" y="57.394643"/>
     <use style="stroke:#000000;" x="463.916469" xlink:href="#m58498073e7" y="57.420378"/>
     <use style="stroke:#000000;" x="466.884694" xlink:href="#m58498073e7" y="61.537459"/>
     <use style="stroke:#000000;" x="469.85292" xlink:href="#m58498073e7" y="65.564611"/>
     <use style="stroke:#000000;" x="472.821145" xlink:href="#m58498073e7" y="70.216219"/>
     <use style="stroke:#000000;" x="475.78937" xlink:href="#m58498073e7" y="73.247834"/>
     <use style="stroke:#000000;" x="478.757595" xlink:href="#m58498073e7" y="70.764871"/>
     <use style="stroke:#000000;" x="481.725821" xlink:href="#m58498073e7" y="69.336119"/>
     <use style="stroke:#000000;" x="484.694046" xlink:href="#m58498073e7" y="67.881033"/>
     <use style="stroke:#000000;" x="487.662271" xlink:href="#m58498073e7" y="66.785964"/>
     <use style="stroke:#000000;" x="490.630496" xlink:href="#m58498073e7" y="67.4055"/>
     <use style="stroke:#000000;" x="493.598722" xlink:href="#m58498073e7" y="67.246791"/>
     <use style="stroke:#000000;" x="496.566947" xlink:href="#m58498073e7" y="67.440784"/>
    </g>
   </g>
   <g id="patch_8">
    <path d="M 346.968394 145.489167 
L 346.968394 27.486 
" style="fill:none;stroke:#000000;stroke-linecap:square;stroke-linejoin:miter;stroke-width:0.8;"/>
   </g>
   <g id="patch_9">
    <path d="M 503.690687 145.489167 
L 503.690687 27.486 
" style="fill:none;stroke:#000000;stroke-linecap:square;stroke-linejoin:miter;stroke-width:0.8;"/>
   </g>
   <g id="patch_10">
    <path d="M 346.968394 145.489167 
L 503.690687 145.489167 
" style="fill:none;stroke:#000000;stroke-linecap:square;stroke-linejoin:miter;stroke-width:0.8;"/>
   </g>
   <g id="patch_11">
    <path d="M 346.968394 27.486 
L 503.690687 27.486 
" style="fill:none;stroke:#000000;stroke-linecap:square;stroke-linejoin:miter;stroke-width:0.8;"/>
   </g>
   <g id="text_20">
    <!-- 128 -->
    <defs>
     <path d="M 31.78125 34.625 
Q 24.75 34.625 20.71875 30.859375 
Q 16.703125 27.09375 16.703125 20.515625 
Q 16.703125 13.921875 20.71875 10.15625 
Q 24.75 6.390625 31.78125 6.390625 
Q 38.8125 6.390625 42.859375 10.171875 
Q 46.921875 13.96875 46.921875 20.515625 
Q 46.921875 27.09375 42.890625 30.859375 
Q 38.875 34.625 31.78125 34.625 
z
M 21.921875 38.8125 
Q 15.578125 40.375 12.03125 44.71875 
Q 8.5 49.078125 8.5 55.328125 
Q 8.5 64.0625 14.71875 69.140625 
Q 20.953125 74.21875 31.78125 74.21875 
Q 42.671875 74.21875 48.875 69.140625 
Q 55.078125 64.0625 55.078125 55.328125 
Q 55.078125 49.078125 51.53125 44.71875 
Q 48 40.375 41.703125 38.8125 
Q 48.828125 37.15625 52.796875 32.3125 
Q 56.78125 27.484375 56.78125 20.515625 
Q 56.78125 9.90625 50.3125 4.234375 
Q 43.84375 -1.421875 31.78125 -1.421875 
Q 19.734375 -1.421875 13.25 4.234375 
Q 6.78125 9.90625 6.78125 20.515625 
Q 6.78125 27.484375 10.78125 32.3125 
Q 14.796875 37.15625 21.921875 38.8125 
z
M 18.3125 54.390625 
Q 18.3125 48.734375 21.84375 45.5625 
Q 25.390625 42.390625 31.78125 42.390625 
Q 38.140625 42.390625 41.71875 45.5625 
Q 45.3125 48.734375 45.3125 54.390625 
Q 45.3125 60.0625 41.71875 63.234375 
Q 38.140625 66.40625 31.78125 66.40625 
Q 25.390625 66.40625 21.84375 63.234375 
Q 18.3125 60.0625 18.3125 54.390625 
z
" id="DejaVuSans-56"/>
    </defs>
    <g transform="translate(413.877041 21.486)scale(0.12 -0.12)">
     <use xlink:href="#DejaVuSans-49"/>
     <use x="63.623047" xlink:href="#DejaVuSans-50"/>
     <use x="127.246094" xlink:href="#DejaVuSans-56"/>
    </g>
   </g>
  </g>
  <g id="axes_3">
   <g id="patch_12">
    <path d="M 593.512081 145.489167 
L 750.234375 145.489167 
L 750.234375 27.486 
L 593.512081 27.486 
z
" style="fill:#ffffff;"/>
   </g>
   <g id="matplotlib.axis_5">
    <g id="xtick_7">
     <g id="line2d_17">
      <g>
       <use style="stroke:#000000;stroke-width:0.8;" x="597.667597" xlink:href="#m89fb5daf48" y="145.489167"/>
      </g>
     </g>
     <g id="text_21">
      <!-- 0 -->
      <g transform="translate(594.486347 160.087604)scale(0.1 -0.1)">
       <use xlink:href="#DejaVuSans-48"/>
      </g>
     </g>
    </g>
    <g id="xtick_8">
     <g id="line2d_18">
      <g>
       <use style="stroke:#000000;stroke-width:0.8;" x="657.032102" xlink:href="#m89fb5daf48" y="145.489167"/>
      </g>
     </g>
     <g id="text_22">
      <!-- 2 -->
      <g transform="translate(653.850852 160.087604)scale(0.1 -0.1)">
       <use xlink:href="#DejaVuSans-50"/>
      </g>
     </g>
    </g>
    <g id="xtick_9">
     <g id="line2d_19">
      <g>
       <use style="stroke:#000000;stroke-width:0.8;" x="716.396607" xlink:href="#m89fb5daf48" y="145.489167"/>
      </g>
     </g>
     <g id="text_23">
      <!-- 4 -->
      <g transform="translate(713.215357 160.087604)scale(0.1 -0.1)">
       <use xlink:href="#DejaVuSans-52"/>
      </g>
     </g>
    </g>
    <g id="text_24">
     <!-- Simulation time $t$ -->
     <g transform="translate(628.773228 173.765729)scale(0.1 -0.1)">
      <use transform="translate(0 0.015625)" xlink:href="#DejaVuSans-83"/>
      <use transform="translate(63.476562 0.015625)" xlink:href="#DejaVuSans-105"/>
      <use transform="translate(91.259766 0.015625)" xlink:href="#DejaVuSans-109"/>
      <use transform="translate(188.671875 0.015625)" xlink:href="#DejaVuSans-117"/>
      <use transform="translate(252.050781 0.015625)" xlink:href="#DejaVuSans-108"/>
      <use transform="translate(279.833984 0.015625)" xlink:href="#DejaVuSans-97"/>
      <use transform="translate(341.113281 0.015625)" xlink:href="#DejaVuSans-116"/>
      <use transform="translate(380.322266 0.015625)" xlink:href="#DejaVuSans-105"/>
      <use transform="translate(408.105469 0.015625)" xlink:href="#DejaVuSans-111"/>
      <use transform="translate(469.287109 0.015625)" xlink:href="#DejaVuSans-110"/>
      <use transform="translate(532.666016 0.015625)" xlink:href="#DejaVuSans-32"/>
      <use transform="translate(564.453125 0.015625)" xlink:href="#DejaVuSans-116"/>
      <use transform="translate(603.662109 0.015625)" xlink:href="#DejaVuSans-105"/>
      <use transform="translate(631.445312 0.015625)" xlink:href="#DejaVuSans-109"/>
      <use transform="translate(728.857422 0.015625)" xlink:href="#DejaVuSans-101"/>
      <use transform="translate(790.380859 0.015625)" xlink:href="#DejaVuSans-32"/>
      <use transform="translate(822.167969 0.015625)" xlink:href="#DejaVuSans-Oblique-116"/>
     </g>
    </g>
   </g>
   <g id="matplotlib.axis_6">
    <g id="ytick_9">
     <g id="line2d_20">
      <g>
       <use style="stroke:#000000;stroke-width:0.8;" x="593.512081" xlink:href="#m029252b70c" y="144.006039"/>
      </g>
     </g>
     <g id="text_25">
      <!-- 5.0 -->
      <g transform="translate(570.608956 147.805258)scale(0.1 -0.1)">
       <use xlink:href="#DejaVuSans-53"/>
       <use x="63.623047" xlink:href="#DejaVuSans-46"/>
       <use x="95.410156" xlink:href="#DejaVuSans-48"/>
      </g>
     </g>
    </g>
    <g id="ytick_10">
     <g id="line2d_21">
      <g>
       <use style="stroke:#000000;stroke-width:0.8;" x="593.512081" xlink:href="#m029252b70c" y="111.799481"/>
      </g>
     </g>
     <g id="text_26">
      <!-- 5.2 -->
      <g transform="translate(570.608956 115.598699)scale(0.1 -0.1)">
       <use xlink:href="#DejaVuSans-53"/>
       <use x="63.623047" xlink:href="#DejaVuSans-46"/>
       <use x="95.410156" xlink:href="#DejaVuSans-50"/>
      </g>
     </g>
    </g>
    <g id="ytick_11">
     <g id="line2d_22">
      <g>
       <use style="stroke:#000000;stroke-width:0.8;" x="593.512081" xlink:href="#m029252b70c" y="79.592922"/>
      </g>
     </g>
     <g id="text_27">
      <!-- 5.4 -->
      <g transform="translate(570.608956 83.39214)scale(0.1 -0.1)">
       <use xlink:href="#DejaVuSans-53"/>
       <use x="63.623047" xlink:href="#DejaVuSans-46"/>
       <use x="95.410156" xlink:href="#DejaVuSans-52"/>
      </g>
     </g>
    </g>
    <g id="ytick_12">
     <g id="line2d_23">
      <g>
       <use style="stroke:#000000;stroke-width:0.8;" x="593.512081" xlink:href="#m029252b70c" y="47.386363"/>
      </g>
     </g>
     <g id="text_28">
      <!-- 5.6 -->
      <g transform="translate(570.608956 51.185582)scale(0.1 -0.1)">
       <use xlink:href="#DejaVuSans-53"/>
       <use x="63.623047" xlink:href="#DejaVuSans-46"/>
       <use x="95.410156" xlink:href="#DejaVuSans-54"/>
      </g>
     </g>
    </g>
    <g id="text_29">
     <!-- $S_{max}$ -->
     <g transform="translate(564.529269 97.437583)rotate(-90)scale(0.1 -0.1)">
      <use transform="translate(0 0.78125)" xlink:href="#DejaVuSans-Oblique-83"/>
      <use transform="translate(63.476562 -15.625)scale(0.7)" xlink:href="#DejaVuSans-Oblique-109"/>
      <use transform="translate(131.665039 -15.625)scale(0.7)" xlink:href="#DejaVuSans-Oblique-97"/>
      <use transform="translate(174.560547 -15.625)scale(0.7)" xlink:href="#DejaVuSans-Oblique-120"/>
     </g>
    </g>
   </g>
   <g id="line2d_24">
    <path clip-path="url(#p48410802d7)" d="M 600.635822 140.125386 
L 603.604047 135.813039 
L 606.572272 130.6444 
L 609.540498 121.070603 
L 612.508723 111.23073 
L 615.476948 104.590935 
L 618.445173 101.033065 
L 621.413399 101.992683 
L 624.381624 105.846119 
L 627.349849 109.344528 
L 630.318074 110.705185 
L 633.2863 106.493306 
L 636.254525 99.503726 
L 639.22275 88.036746 
L 642.190976 72.008257 
L 645.159201 53.665269 
L 648.127426 34.058004 
L 651.095651 32.84978 
L 654.063877 53.751144 
L 657.032102 66.743569 
L 660.000327 70.723542 
L 662.968552 68.593043 
L 665.936778 59.625094 
L 668.905003 52.408185 
L 671.873228 61.517306 
L 674.841453 55.469909 
L 677.809679 63.780415 
L 680.777904 75.927341 
L 683.746129 76.487444 
L 686.714354 72.120684 
L 689.68258 63.250745 
L 692.650805 62.769638 
L 695.61903 63.656551 
L 698.587255 69.722618 
L 701.555481 79.715575 
L 704.523706 79.976206 
L 707.491931 71.749044 
L 710.460157 62.156699 
L 713.428382 60.171495 
L 716.396607 66.672331 
L 719.364832 69.393563 
L 722.333058 74.086269 
L 725.301283 73.629971 
L 728.269508 69.746 
L 731.237733 64.112048 
L 734.205959 66.631448 
L 737.174184 69.028264 
L 740.142409 69.512879 
L 743.110634 71.655499 
" style="fill:none;stroke:#000000;stroke-linecap:square;stroke-width:1.5;"/>
    <g clip-path="url(#p48410802d7)">
     <use style="stroke:#000000;" x="600.635822" xlink:href="#m58498073e7" y="140.125386"/>
     <use style="stroke:#000000;" x="603.604047" xlink:href="#m58498073e7" y="135.813039"/>
     <use style="stroke:#000000;" x="606.572272" xlink:href="#m58498073e7" y="130.6444"/>
     <use style="stroke:#000000;" x="609.540498" xlink:href="#m58498073e7" y="121.070603"/>
     <use style="stroke:#000000;" x="612.508723" xlink:href="#m58498073e7" y="111.23073"/>
     <use style="stroke:#000000;" x="615.476948" xlink:href="#m58498073e7" y="104.590935"/>
     <use style="stroke:#000000;" x="618.445173" xlink:href="#m58498073e7" y="101.033065"/>
     <use style="stroke:#000000;" x="621.413399" xlink:href="#m58498073e7" y="101.992683"/>
     <use style="stroke:#000000;" x="624.381624" xlink:href="#m58498073e7" y="105.846119"/>
     <use style="stroke:#000000;" x="627.349849" xlink:href="#m58498073e7" y="109.344528"/>
     <use style="stroke:#000000;" x="630.318074" xlink:href="#m58498073e7" y="110.705185"/>
     <use style="stroke:#000000;" x="633.2863" xlink:href="#m58498073e7" y="106.493306"/>
     <use style="stroke:#000000;" x="636.254525" xlink:href="#m58498073e7" y="99.503726"/>
     <use style="stroke:#000000;" x="639.22275" xlink:href="#m58498073e7" y="88.036746"/>
     <use style="stroke:#000000;" x="642.190976" xlink:href="#m58498073e7" y="72.008257"/>
     <use style="stroke:#000000;" x="645.159201" xlink:href="#m58498073e7" y="53.665269"/>
     <use style="stroke:#000000;" x="648.127426" xlink:href="#m58498073e7" y="34.058004"/>
     <use style="stroke:#000000;" x="651.095651" xlink:href="#m58498073e7" y="32.84978"/>
     <use style="stroke:#000000;" x="654.063877" xlink:href="#m58498073e7" y="53.751144"/>
     <use style="stroke:#000000;" x="657.032102" xlink:href="#m58498073e7" y="66.743569"/>
     <use style="stroke:#000000;" x="660.000327" xlink:href="#m58498073e7" y="70.723542"/>
     <use style="stroke:#000000;" x="662.968552" xlink:href="#m58498073e7" y="68.593043"/>
     <use style="stroke:#000000;" x="665.936778" xlink:href="#m58498073e7" y="59.625094"/>
     <use style="stroke:#000000;" x="668.905003" xlink:href="#m58498073e7" y="52.408185"/>
     <use style="stroke:#000000;" x="671.873228" xlink:href="#m58498073e7" y="61.517306"/>
     <use style="stroke:#000000;" x="674.841453" xlink:href="#m58498073e7" y="55.469909"/>
     <use style="stroke:#000000;" x="677.809679" xlink:href="#m58498073e7" y="63.780415"/>
     <use style="stroke:#000000;" x="680.777904" xlink:href="#m58498073e7" y="75.927341"/>
     <use style="stroke:#000000;" x="683.746129" xlink:href="#m58498073e7" y="76.487444"/>
     <use style="stroke:#000000;" x="686.714354" xlink:href="#m58498073e7" y="72.120684"/>
     <use style="stroke:#000000;" x="689.68258" xlink:href="#m58498073e7" y="63.250745"/>
     <use style="stroke:#000000;" x="692.650805" xlink:href="#m58498073e7" y="62.769638"/>
     <use style="stroke:#000000;" x="695.61903" xlink:href="#m58498073e7" y="63.656551"/>
     <use style="stroke:#000000;" x="698.587255" xlink:href="#m58498073e7" y="69.722618"/>
     <use style="stroke:#000000;" x="701.555481" xlink:href="#m58498073e7" y="79.715575"/>
     <use style="stroke:#000000;" x="704.523706" xlink:href="#m58498073e7" y="79.976206"/>
     <use style="stroke:#000000;" x="707.491931" xlink:href="#m58498073e7" y="71.749044"/>
     <use style="stroke:#000000;" x="710.460157" xlink:href="#m58498073e7" y="62.156699"/>
     <use style="stroke:#000000;" x="713.428382" xlink:href="#m58498073e7" y="60.171495"/>
     <use style="stroke:#000000;" x="716.396607" xlink:href="#m58498073e7" y="66.672331"/>
     <use style="stroke:#000000;" x="719.364832" xlink:href="#m58498073e7" y="69.393563"/>
     <use style="stroke:#000000;" x="722.333058" xlink:href="#m58498073e7" y="74.086269"/>
     <use style="stroke:#000000;" x="725.301283" xlink:href="#m58498073e7" y="73.629971"/>
     <use style="stroke:#000000;" x="728.269508" xlink:href="#m58498073e7" y="69.746"/>
     <use style="stroke:#000000;" x="731.237733" xlink:href="#m58498073e7" y="64.112048"/>
     <use style="stroke:#000000;" x="734.205959" xlink:href="#m58498073e7" y="66.631448"/>
     <use style="stroke:#000000;" x="737.174184" xlink:href="#m58498073e7" y="69.028264"/>
     <use style="stroke:#000000;" x="740.142409" xlink:href="#m58498073e7" y="69.512879"/>
     <use style="stroke:#000000;" x="743.110634" xlink:href="#m58498073e7" y="71.655499"/>
    </g>
   </g>
   <g id="patch_13">
    <path d="M 593.512081 145.489167 
L 593.512081 27.486 
" style="fill:none;stroke:#000000;stroke-linecap:square;stroke-linejoin:miter;stroke-width:0.8;"/>
   </g>
   <g id="patch_14">
    <path d="M 750.234375 145.489167 
L 750.234375 27.486 
" style="fill:none;stroke:#000000;stroke-linecap:square;stroke-linejoin:miter;stroke-width:0.8;"/>
   </g>
   <g id="patch_15">
    <path d="M 593.512081 145.489167 
L 750.234375 145.489167 
" style="fill:none;stroke:#000000;stroke-linecap:square;stroke-linejoin:miter;stroke-width:0.8;"/>
   </g>
   <g id="patch_16">
    <path d="M 593.512081 27.486 
L 750.234375 27.486 
" style="fill:none;stroke:#000000;stroke-linecap:square;stroke-linejoin:miter;stroke-width:0.8;"/>
   </g>
   <g id="text_30">
    <!-- 256 -->
    <g transform="translate(660.420728 21.486)scale(0.12 -0.12)">
     <use xlink:href="#DejaVuSans-50"/>
     <use x="63.623047" xlink:href="#DejaVuSans-53"/>
     <use x="127.246094" xlink:href="#DejaVuSans-54"/>
    </g>
   </g>
  </g>
  <g id="axes_4">
   <g id="patch_17">
    <path d="M 100.424706 323.002917 
L 257.147 323.002917 
L 257.147 204.99975 
L 100.424706 204.99975 
z
" style="fill:#ffffff;"/>
   </g>
   <g id="matplotlib.axis_7">
    <g id="xtick_10">
     <g id="line2d_25">
      <g>
       <use style="stroke:#000000;stroke-width:0.8;" x="104.580222" xlink:href="#m89fb5daf48" y="323.002917"/>
      </g>
     </g>
     <g id="text_31">
      <!-- 0 -->
      <g transform="translate(101.398972 337.601354)scale(0.1 -0.1)">
       <use xlink:href="#DejaVuSans-48"/>
      </g>
     </g>
    </g>
    <g id="xtick_11">
     <g id="line2d_26">
      <g>
       <use style="stroke:#000000;stroke-width:0.8;" x="163.944727" xlink:href="#m89fb5daf48" y="323.002917"/>
      </g>
     </g>
     <g id="text_32">
      <!-- 2 -->
      <g transform="translate(160.763477 337.601354)scale(0.1 -0.1)">
       <use xlink:href="#DejaVuSans-50"/>
      </g>
     </g>
    </g>
    <g id="xtick_12">
     <g id="line2d_27">
      <g>
       <use style="stroke:#000000;stroke-width:0.8;" x="223.309232" xlink:href="#m89fb5daf48" y="323.002917"/>
      </g>
     </g>
     <g id="text_33">
      <!-- 4 -->
      <g transform="translate(220.127982 337.601354)scale(0.1 -0.1)">
       <use xlink:href="#DejaVuSans-52"/>
      </g>
     </g>
    </g>
    <g id="text_34">
     <!-- Simulation time $t$ -->
     <g transform="translate(135.685853 351.279479)scale(0.1 -0.1)">
      <use transform="translate(0 0.015625)" xlink:href="#DejaVuSans-83"/>
      <use transform="translate(63.476562 0.015625)" xlink:href="#DejaVuSans-105"/>
      <use transform="translate(91.259766 0.015625)" xlink:href="#DejaVuSans-109"/>
      <use transform="translate(188.671875 0.015625)" xlink:href="#DejaVuSans-117"/>
      <use transform="translate(252.050781 0.015625)" xlink:href="#DejaVuSans-108"/>
      <use transform="translate(279.833984 0.015625)" xlink:href="#DejaVuSans-97"/>
      <use transform="translate(341.113281 0.015625)" xlink:href="#DejaVuSans-116"/>
      <use transform="translate(380.322266 0.015625)" xlink:href="#DejaVuSans-105"/>
      <use transform="translate(408.105469 0.015625)" xlink:href="#DejaVuSans-111"/>
      <use transform="translate(469.287109 0.015625)" xlink:href="#DejaVuSans-110"/>
      <use transform="translate(532.666016 0.015625)" xlink:href="#DejaVuSans-32"/>
      <use transform="translate(564.453125 0.015625)" xlink:href="#DejaVuSans-116"/>
      <use transform="translate(603.662109 0.015625)" xlink:href="#DejaVuSans-105"/>
      <use transform="translate(631.445312 0.015625)" xlink:href="#DejaVuSans-109"/>
      <use transform="translate(728.857422 0.015625)" xlink:href="#DejaVuSans-101"/>
      <use transform="translate(790.380859 0.015625)" xlink:href="#DejaVuSans-32"/>
      <use transform="translate(822.167969 0.015625)" xlink:href="#DejaVuSans-Oblique-116"/>
     </g>
    </g>
   </g>
   <g id="matplotlib.axis_8">
    <g id="ytick_13">
     <g id="line2d_28">
      <g>
       <use style="stroke:#000000;stroke-width:0.8;" x="100.424706" xlink:href="#m029252b70c" y="300.44302"/>
      </g>
     </g>
     <g id="text_35">
      <!-- 9.0 -->
      <defs>
       <path d="M 10.984375 1.515625 
L 10.984375 10.5 
Q 14.703125 8.734375 18.5 7.8125 
Q 22.3125 6.890625 25.984375 6.890625 
Q 35.75 6.890625 40.890625 13.453125 
Q 46.046875 20.015625 46.78125 33.40625 
Q 43.953125 29.203125 39.59375 26.953125 
Q 35.25 24.703125 29.984375 24.703125 
Q 19.046875 24.703125 12.671875 31.3125 
Q 6.296875 37.9375 6.296875 49.421875 
Q 6.296875 60.640625 12.9375 67.421875 
Q 19.578125 74.21875 30.609375 74.21875 
Q 43.265625 74.21875 49.921875 64.515625 
Q 56.59375 54.828125 56.59375 36.375 
Q 56.59375 19.140625 48.40625 8.859375 
Q 40.234375 -1.421875 26.421875 -1.421875 
Q 22.703125 -1.421875 18.890625 -0.6875 
Q 15.09375 0.046875 10.984375 1.515625 
z
M 30.609375 32.421875 
Q 37.25 32.421875 41.125 36.953125 
Q 45.015625 41.5 45.015625 49.421875 
Q 45.015625 57.28125 41.125 61.84375 
Q 37.25 66.40625 30.609375 66.40625 
Q 23.96875 66.40625 20.09375 61.84375 
Q 16.21875 57.28125 16.21875 49.421875 
Q 16.21875 41.5 20.09375 36.953125 
Q 23.96875 32.421875 30.609375 32.421875 
z
" id="DejaVuSans-57"/>
      </defs>
      <g transform="translate(77.521581 304.242239)scale(0.1 -0.1)">
       <use xlink:href="#DejaVuSans-57"/>
       <use x="63.623047" xlink:href="#DejaVuSans-46"/>
       <use x="95.410156" xlink:href="#DejaVuSans-48"/>
      </g>
     </g>
    </g>
    <g id="ytick_14">
     <g id="line2d_29">
      <g>
       <use style="stroke:#000000;stroke-width:0.8;" x="100.424706" xlink:href="#m029252b70c" y="258.826693"/>
      </g>
     </g>
     <g id="text_36">
      <!-- 9.5 -->
      <g transform="translate(77.521581 262.625912)scale(0.1 -0.1)">
       <use xlink:href="#DejaVuSans-57"/>
       <use x="63.623047" xlink:href="#DejaVuSans-46"/>
       <use x="95.410156" xlink:href="#DejaVuSans-53"/>
      </g>
     </g>
    </g>
    <g id="ytick_15">
     <g id="line2d_30">
      <g>
       <use style="stroke:#000000;stroke-width:0.8;" x="100.424706" xlink:href="#m029252b70c" y="217.210366"/>
      </g>
     </g>
     <g id="text_37">
      <!-- 10.0 -->
      <g transform="translate(71.159081 221.009585)scale(0.1 -0.1)">
       <use xlink:href="#DejaVuSans-49"/>
       <use x="63.623047" xlink:href="#DejaVuSans-48"/>
       <use x="127.246094" xlink:href="#DejaVuSans-46"/>
       <use x="159.033203" xlink:href="#DejaVuSans-48"/>
      </g>
     </g>
    </g>
    <g id="text_38">
     <!-- $S_{max}$ -->
     <g transform="translate(65.079394 274.951333)rotate(-90)scale(0.1 -0.1)">
      <use transform="translate(0 0.78125)" xlink:href="#DejaVuSans-Oblique-83"/>
      <use transform="translate(63.476562 -15.625)scale(0.7)" xlink:href="#DejaVuSans-Oblique-109"/>
      <use transform="translate(131.665039 -15.625)scale(0.7)" xlink:href="#DejaVuSans-Oblique-97"/>
      <use transform="translate(174.560547 -15.625)scale(0.7)" xlink:href="#DejaVuSans-Oblique-120"/>
     </g>
    </g>
   </g>
   <g id="line2d_31">
    <path clip-path="url(#p5d1cad795e)" d="M 107.548447 317.639136 
L 110.516672 314.909991 
L 113.484897 307.924796 
L 116.453123 294.147504 
L 119.421348 277.310636 
L 122.389573 267.99564 
L 125.357798 271.341245 
L 128.326024 273.261763 
L 131.294249 277.032345 
L 134.262474 281.997679 
L 137.230699 271.01241 
L 140.198925 255.174414 
L 143.16715 243.176525 
L 146.135375 228.215178 
L 149.103601 214.561399 
L 152.071826 210.36353 
L 155.040051 242.779961 
L 158.008276 254.973777 
L 160.976502 243.362339 
L 163.944727 242.696808 
L 166.912952 226.214992 
L 169.881177 235.422201 
L 172.849403 234.650913 
L 175.817628 244.002934 
L 178.785853 255.636975 
L 181.754078 248.674223 
L 184.722304 239.096295 
L 187.690529 231.726802 
L 190.658754 239.531699 
L 193.626979 246.008619 
L 196.595205 252.751893 
L 199.56343 248.899734 
L 202.531655 238.761952 
L 205.49988 235.766376 
L 208.468106 241.017697 
L 211.436331 246.80947 
L 214.404556 248.890223 
L 217.372782 247.12559 
L 220.341007 239.335547 
L 223.309232 238.49765 
L 226.277457 241.793387 
L 229.245683 245.854611 
L 232.213908 248.013547 
L 235.182133 246.700004 
L 238.150358 240.985118 
L 241.118584 240.972146 
L 244.086809 242.970774 
L 247.055034 245.004198 
L 250.023259 247.313475 
" style="fill:none;stroke:#000000;stroke-linecap:square;stroke-width:1.5;"/>
    <g clip-path="url(#p5d1cad795e)">
     <use style="stroke:#000000;" x="107.548447" xlink:href="#m58498073e7" y="317.639136"/>
     <use style="stroke:#000000;" x="110.516672" xlink:href="#m58498073e7" y="314.909991"/>
     <use style="stroke:#000000;" x="113.484897" xlink:href="#m58498073e7" y="307.924796"/>
     <use style="stroke:#000000;" x="116.453123" xlink:href="#m58498073e7" y="294.147504"/>
     <use style="stroke:#000000;" x="119.421348" xlink:href="#m58498073e7" y="277.310636"/>
     <use style="stroke:#000000;" x="122.389573" xlink:href="#m58498073e7" y="267.99564"/>
     <use style="stroke:#000000;" x="125.357798" xlink:href="#m58498073e7" y="271.341245"/>
     <use style="stroke:#000000;" x="128.326024" xlink:href="#m58498073e7" y="273.261763"/>
     <use style="stroke:#000000;" x="131.294249" xlink:href="#m58498073e7" y="277.032345"/>
     <use style="stroke:#000000;" x="134.262474" xlink:href="#m58498073e7" y="281.997679"/>
     <use style="stroke:#000000;" x="137.230699" xlink:href="#m58498073e7" y="271.01241"/>
     <use style="stroke:#000000;" x="140.198925" xlink:href="#m58498073e7" y="255.174414"/>
     <use style="stroke:#000000;" x="143.16715" xlink:href="#m58498073e7" y="243.176525"/>
     <use style="stroke:#000000;" x="146.135375" xlink:href="#m58498073e7" y="228.215178"/>
     <use style="stroke:#000000;" x="149.103601" xlink:href="#m58498073e7" y="214.561399"/>
     <use style="stroke:#000000;" x="152.071826" xlink:href="#m58498073e7" y="210.36353"/>
     <use style="stroke:#000000;" x="155.040051" xlink:href="#m58498073e7" y="242.779961"/>
     <use style="stroke:#000000;" x="158.008276" xlink:href="#m58498073e7" y="254.973777"/>
     <use style="stroke:#000000;" x="160.976502" xlink:href="#m58498073e7" y="243.362339"/>
     <use style="stroke:#000000;" x="163.944727" xlink:href="#m58498073e7" y="242.696808"/>
     <use style="stroke:#000000;" x="166.912952" xlink:href="#m58498073e7" y="226.214992"/>
     <use style="stroke:#000000;" x="169.881177" xlink:href="#m58498073e7" y="235.422201"/>
     <use style="stroke:#000000;" x="172.849403" xlink:href="#m58498073e7" y="234.650913"/>
     <use style="stroke:#000000;" x="175.817628" xlink:href="#m58498073e7" y="244.002934"/>
     <use style="stroke:#000000;" x="178.785853" xlink:href="#m58498073e7" y="255.636975"/>
     <use style="stroke:#000000;" x="181.754078" xlink:href="#m58498073e7" y="248.674223"/>
     <use style="stroke:#000000;" x="184.722304" xlink:href="#m58498073e7" y="239.096295"/>
     <use style="stroke:#000000;" x="187.690529" xlink:href="#m58498073e7" y="231.726802"/>
     <use style="stroke:#000000;" x="190.658754" xlink:href="#m58498073e7" y="239.531699"/>
     <use style="stroke:#000000;" x="193.626979" xlink:href="#m58498073e7" y="246.008619"/>
     <use style="stroke:#000000;" x="196.595205" xlink:href="#m58498073e7" y="252.751893"/>
     <use style="stroke:#000000;" x="199.56343" xlink:href="#m58498073e7" y="248.899734"/>
     <use style="stroke:#000000;" x="202.531655" xlink:href="#m58498073e7" y="238.761952"/>
     <use style="stroke:#000000;" x="205.49988" xlink:href="#m58498073e7" y="235.766376"/>
     <use style="stroke:#000000;" x="208.468106" xlink:href="#m58498073e7" y="241.017697"/>
     <use style="stroke:#000000;" x="211.436331" xlink:href="#m58498073e7" y="246.80947"/>
     <use style="stroke:#000000;" x="214.404556" xlink:href="#m58498073e7" y="248.890223"/>
     <use style="stroke:#000000;" x="217.372782" xlink:href="#m58498073e7" y="247.12559"/>
     <use style="stroke:#000000;" x="220.341007" xlink:href="#m58498073e7" y="239.335547"/>
     <use style="stroke:#000000;" x="223.309232" xlink:href="#m58498073e7" y="238.49765"/>
     <use style="stroke:#000000;" x="226.277457" xlink:href="#m58498073e7" y="241.793387"/>
     <use style="stroke:#000000;" x="229.245683" xlink:href="#m58498073e7" y="245.854611"/>
     <use style="stroke:#000000;" x="232.213908" xlink:href="#m58498073e7" y="248.013547"/>
     <use style="stroke:#000000;" x="235.182133" xlink:href="#m58498073e7" y="246.700004"/>
     <use style="stroke:#000000;" x="238.150358" xlink:href="#m58498073e7" y="240.985118"/>
     <use style="stroke:#000000;" x="241.118584" xlink:href="#m58498073e7" y="240.972146"/>
     <use style="stroke:#000000;" x="244.086809" xlink:href="#m58498073e7" y="242.970774"/>
     <use style="stroke:#000000;" x="247.055034" xlink:href="#m58498073e7" y="245.004198"/>
     <use style="stroke:#000000;" x="250.023259" xlink:href="#m58498073e7" y="247.313475"/>
    </g>
   </g>
   <g id="patch_18">
    <path d="M 100.424706 323.002917 
L 100.424706 204.99975 
" style="fill:none;stroke:#000000;stroke-linecap:square;stroke-linejoin:miter;stroke-width:0.8;"/>
   </g>
   <g id="patch_19">
    <path d="M 257.147 323.002917 
L 257.147 204.99975 
" style="fill:none;stroke:#000000;stroke-linecap:square;stroke-linejoin:miter;stroke-width:0.8;"/>
   </g>
   <g id="patch_20">
    <path d="M 100.424706 323.002917 
L 257.147 323.002917 
" style="fill:none;stroke:#000000;stroke-linecap:square;stroke-linejoin:miter;stroke-width:0.8;"/>
   </g>
   <g id="patch_21">
    <path d="M 100.424706 204.99975 
L 257.147 204.99975 
" style="fill:none;stroke:#000000;stroke-linecap:square;stroke-linejoin:miter;stroke-width:0.8;"/>
   </g>
   <g id="text_39">
    <!-- 448 -->
    <g transform="translate(167.333353 198.99975)scale(0.12 -0.12)">
     <use xlink:href="#DejaVuSans-52"/>
     <use x="63.623047" xlink:href="#DejaVuSans-52"/>
     <use x="127.246094" xlink:href="#DejaVuSans-56"/>
    </g>
   </g>
  </g>
  <g id="axes_5">
   <g id="patch_22">
    <path d="M 346.968394 323.002917 
L 503.690687 323.002917 
L 503.690687 204.99975 
L 346.968394 204.99975 
z
" style="fill:#ffffff;"/>
   </g>
   <g id="matplotlib.axis_9">
    <g id="xtick_13">
     <g id="line2d_32">
      <g>
       <use style="stroke:#000000;stroke-width:0.8;" x="351.123909" xlink:href="#m89fb5daf48" y="323.002917"/>
      </g>
     </g>
     <g id="text_40">
      <!-- 0 -->
      <g transform="translate(347.942659 337.601354)scale(0.1 -0.1)">
       <use xlink:href="#DejaVuSans-48"/>
      </g>
     </g>
    </g>
    <g id="xtick_14">
     <g id="line2d_33">
      <g>
       <use style="stroke:#000000;stroke-width:0.8;" x="410.488414" xlink:href="#m89fb5daf48" y="323.002917"/>
      </g>
     </g>
     <g id="text_41">
      <!-- 2 -->
      <g transform="translate(407.307164 337.601354)scale(0.1 -0.1)">
       <use xlink:href="#DejaVuSans-50"/>
      </g>
     </g>
    </g>
    <g id="xtick_15">
     <g id="line2d_34">
      <g>
       <use style="stroke:#000000;stroke-width:0.8;" x="469.85292" xlink:href="#m89fb5daf48" y="323.002917"/>
      </g>
     </g>
     <g id="text_42">
      <!-- 4 -->
      <g transform="translate(466.67167 337.601354)scale(0.1 -0.1)">
       <use xlink:href="#DejaVuSans-52"/>
      </g>
     </g>
    </g>
    <g id="text_43">
     <!-- Simulation time $t$ -->
     <g transform="translate(382.229541 351.279479)scale(0.1 -0.1)">
      <use transform="translate(0 0.015625)" xlink:href="#DejaVuSans-83"/>
      <use transform="translate(63.476562 0.015625)" xlink:href="#DejaVuSans-105"/>
      <use transform="translate(91.259766 0.015625)" xlink:href="#DejaVuSans-109"/>
      <use transform="translate(188.671875 0.015625)" xlink:href="#DejaVuSans-117"/>
      <use transform="translate(252.050781 0.015625)" xlink:href="#DejaVuSans-108"/>
      <use transform="translate(279.833984 0.015625)" xlink:href="#DejaVuSans-97"/>
      <use transform="translate(341.113281 0.015625)" xlink:href="#DejaVuSans-116"/>
      <use transform="translate(380.322266 0.015625)" xlink:href="#DejaVuSans-105"/>
      <use transform="translate(408.105469 0.015625)" xlink:href="#DejaVuSans-111"/>
      <use transform="translate(469.287109 0.015625)" xlink:href="#DejaVuSans-110"/>
      <use transform="translate(532.666016 0.015625)" xlink:href="#DejaVuSans-32"/>
      <use transform="translate(564.453125 0.015625)" xlink:href="#DejaVuSans-116"/>
      <use transform="translate(603.662109 0.015625)" xlink:href="#DejaVuSans-105"/>
      <use transform="translate(631.445312 0.015625)" xlink:href="#DejaVuSans-109"/>
      <use transform="translate(728.857422 0.015625)" xlink:href="#DejaVuSans-101"/>
      <use transform="translate(790.380859 0.015625)" xlink:href="#DejaVuSans-32"/>
      <use transform="translate(822.167969 0.015625)" xlink:href="#DejaVuSans-Oblique-116"/>
     </g>
    </g>
   </g>
   <g id="matplotlib.axis_10">
    <g id="ytick_16">
     <g id="line2d_35">
      <g>
       <use style="stroke:#000000;stroke-width:0.8;" x="346.968394" xlink:href="#m029252b70c" y="305.452424"/>
      </g>
     </g>
     <g id="text_44">
      <!-- 11.5 -->
      <g transform="translate(317.702769 309.251643)scale(0.1 -0.1)">
       <use xlink:href="#DejaVuSans-49"/>
       <use x="63.623047" xlink:href="#DejaVuSans-49"/>
       <use x="127.246094" xlink:href="#DejaVuSans-46"/>
       <use x="159.033203" xlink:href="#DejaVuSans-53"/>
      </g>
     </g>
    </g>
    <g id="ytick_17">
     <g id="line2d_36">
      <g>
       <use style="stroke:#000000;stroke-width:0.8;" x="346.968394" xlink:href="#m029252b70c" y="274.040428"/>
      </g>
     </g>
     <g id="text_45">
      <!-- 12.0 -->
      <g transform="translate(317.702769 277.839646)scale(0.1 -0.1)">
       <use xlink:href="#DejaVuSans-49"/>
       <use x="63.623047" xlink:href="#DejaVuSans-50"/>
       <use x="127.246094" xlink:href="#DejaVuSans-46"/>
       <use x="159.033203" xlink:href="#DejaVuSans-48"/>
      </g>
     </g>
    </g>
    <g id="ytick_18">
     <g id="line2d_37">
      <g>
       <use style="stroke:#000000;stroke-width:0.8;" x="346.968394" xlink:href="#m029252b70c" y="242.628431"/>
      </g>
     </g>
     <g id="text_46">
      <!-- 12.5 -->
      <g transform="translate(317.702769 246.42765)scale(0.1 -0.1)">
       <use xlink:href="#DejaVuSans-49"/>
       <use x="63.623047" xlink:href="#DejaVuSans-50"/>
       <use x="127.246094" xlink:href="#DejaVuSans-46"/>
       <use x="159.033203" xlink:href="#DejaVuSans-53"/>
      </g>
     </g>
    </g>
    <g id="ytick_19">
     <g id="line2d_38">
      <g>
       <use style="stroke:#000000;stroke-width:0.8;" x="346.968394" xlink:href="#m029252b70c" y="211.216435"/>
      </g>
     </g>
     <g id="text_47">
      <!-- 13.0 -->
      <g transform="translate(317.702769 215.015654)scale(0.1 -0.1)">
       <use xlink:href="#DejaVuSans-49"/>
       <use x="63.623047" xlink:href="#DejaVuSans-51"/>
       <use x="127.246094" xlink:href="#DejaVuSans-46"/>
       <use x="159.033203" xlink:href="#DejaVuSans-48"/>
      </g>
     </g>
    </g>
    <g id="text_48">
     <!-- $S_{max}$ -->
     <g transform="translate(311.623081 274.951333)rotate(-90)scale(0.1 -0.1)">
      <use transform="translate(0 0.78125)" xlink:href="#DejaVuSans-Oblique-83"/>
      <use transform="translate(63.476562 -15.625)scale(0.7)" xlink:href="#DejaVuSans-Oblique-109"/>
      <use transform="translate(131.665039 -15.625)scale(0.7)" xlink:href="#DejaVuSans-Oblique-97"/>
      <use transform="translate(174.560547 -15.625)scale(0.7)" xlink:href="#DejaVuSans-Oblique-120"/>
     </g>
    </g>
   </g>
   <g id="line2d_39">
    <path clip-path="url(#p21d57e9983)" d="M 354.092134 317.639136 
L 357.06036 315.040203 
L 360.028585 308.001651 
L 362.99681 293.499283 
L 365.965035 275.800552 
L 368.933261 266.359418 
L 371.901486 273.043897 
L 374.869711 274.383874 
L 377.837936 276.510459 
L 380.806162 279.995836 
L 383.774387 265.17753 
L 386.742612 249.676692 
L 389.710837 239.771096 
L 392.679063 224.303157 
L 395.647288 210.36353 
L 398.615513 222.274506 
L 401.583739 247.080035 
L 404.551964 249.413561 
L 407.520189 245.273673 
L 410.488414 238.760857 
L 413.45664 227.746939 
L 416.424865 235.719253 
L 419.39309 246.337303 
L 422.361315 249.575532 
L 425.329541 252.184518 
L 428.297766 242.584769 
L 431.265991 234.771419 
L 434.234216 240.974932 
L 437.202442 245.83564 
L 440.170667 249.803505 
L 443.138892 246.809628 
L 446.107117 241.129725 
L 449.075343 237.115096 
L 452.043568 243.543328 
L 455.011793 246.942923 
L 457.980018 247.34914 
L 460.948244 243.849768 
L 463.916469 241.672845 
L 466.884694 241.514753 
L 469.85292 246.5281 
L 472.821145 245.434763 
L 475.78937 243.825571 
L 478.757595 243.767105 
L 481.725821 245.206869 
L 484.694046 245.103239 
L 487.662271 246.17489 
L 490.630496 242.698992 
L 493.598722 242.40021 
L 496.566947 246.878219 
" style="fill:none;stroke:#000000;stroke-linecap:square;stroke-width:1.5;"/>
    <g clip-path="url(#p21d57e9983)">
     <use style="stroke:#000000;" x="354.092134" xlink:href="#m58498073e7" y="317.639136"/>
     <use style="stroke:#000000;" x="357.06036" xlink:href="#m58498073e7" y="315.040203"/>
     <use style="stroke:#000000;" x="360.028585" xlink:href="#m58498073e7" y="308.001651"/>
     <use style="stroke:#000000;" x="362.99681" xlink:href="#m58498073e7" y="293.499283"/>
     <use style="stroke:#000000;" x="365.965035" xlink:href="#m58498073e7" y="275.800552"/>
     <use style="stroke:#000000;" x="368.933261" xlink:href="#m58498073e7" y="266.359418"/>
     <use style="stroke:#000000;" x="371.901486" xlink:href="#m58498073e7" y="273.043897"/>
     <use style="stroke:#000000;" x="374.869711" xlink:href="#m58498073e7" y="274.383874"/>
     <use style="stroke:#000000;" x="377.837936" xlink:href="#m58498073e7" y="276.510459"/>
     <use style="stroke:#000000;" x="380.806162" xlink:href="#m58498073e7" y="279.995836"/>
     <use style="stroke:#000000;" x="383.774387" xlink:href="#m58498073e7" y="265.17753"/>
     <use style="stroke:#000000;" x="386.742612" xlink:href="#m58498073e7" y="249.676692"/>
     <use style="stroke:#000000;" x="389.710837" xlink:href="#m58498073e7" y="239.771096"/>
     <use style="stroke:#000000;" x="392.679063" xlink:href="#m58498073e7" y="224.303157"/>
     <use style="stroke:#000000;" x="395.647288" xlink:href="#m58498073e7" y="210.36353"/>
     <use style="stroke:#000000;" x="398.615513" xlink:href="#m58498073e7" y="222.274506"/>
     <use style="stroke:#000000;" x="401.583739" xlink:href="#m58498073e7" y="247.080035"/>
     <use style="stroke:#000000;" x="404.551964" xlink:href="#m58498073e7" y="249.413561"/>
     <use style="stroke:#000000;" x="407.520189" xlink:href="#m58498073e7" y="245.273673"/>
     <use style="stroke:#000000;" x="410.488414" xlink:href="#m58498073e7" y="238.760857"/>
     <use style="stroke:#000000;" x="413.45664" xlink:href="#m58498073e7" y="227.746939"/>
     <use style="stroke:#000000;" x="416.424865" xlink:href="#m58498073e7" y="235.719253"/>
     <use style="stroke:#000000;" x="419.39309" xlink:href="#m58498073e7" y="246.337303"/>
     <use style="stroke:#000000;" x="422.361315" xlink:href="#m58498073e7" y="249.575532"/>
     <use style="stroke:#000000;" x="425.329541" xlink:href="#m58498073e7" y="252.184518"/>
     <use style="stroke:#000000;" x="428.297766" xlink:href="#m58498073e7" y="242.584769"/>
     <use style="stroke:#000000;" x="431.265991" xlink:href="#m58498073e7" y="234.771419"/>
     <use style="stroke:#000000;" x="434.234216" xlink:href="#m58498073e7" y="240.974932"/>
     <use style="stroke:#000000;" x="437.202442" xlink:href="#m58498073e7" y="245.83564"/>
     <use style="stroke:#000000;" x="440.170667" xlink:href="#m58498073e7" y="249.803505"/>
     <use style="stroke:#000000;" x="443.138892" xlink:href="#m58498073e7" y="246.809628"/>
     <use style="stroke:#000000;" x="446.107117" xlink:href="#m58498073e7" y="241.129725"/>
     <use style="stroke:#000000;" x="449.075343" xlink:href="#m58498073e7" y="237.115096"/>
     <use style="stroke:#000000;" x="452.043568" xlink:href="#m58498073e7" y="243.543328"/>
     <use style="stroke:#000000;" x="455.011793" xlink:href="#m58498073e7" y="246.942923"/>
     <use style="stroke:#000000;" x="457.980018" xlink:href="#m58498073e7" y="247.34914"/>
     <use style="stroke:#000000;" x="460.948244" xlink:href="#m58498073e7" y="243.849768"/>
     <use style="stroke:#000000;" x="463.916469" xlink:href="#m58498073e7" y="241.672845"/>
     <use style="stroke:#000000;" x="466.884694" xlink:href="#m58498073e7" y="241.514753"/>
     <use style="stroke:#000000;" x="469.85292" xlink:href="#m58498073e7" y="246.5281"/>
     <use style="stroke:#000000;" x="472.821145" xlink:href="#m58498073e7" y="245.434763"/>
     <use style="stroke:#000000;" x="475.78937" xlink:href="#m58498073e7" y="243.825571"/>
     <use style="stroke:#000000;" x="478.757595" xlink:href="#m58498073e7" y="243.767105"/>
     <use style="stroke:#000000;" x="481.725821" xlink:href="#m58498073e7" y="245.206869"/>
     <use style="stroke:#000000;" x="484.694046" xlink:href="#m58498073e7" y="245.103239"/>
     <use style="stroke:#000000;" x="487.662271" xlink:href="#m58498073e7" y="246.17489"/>
     <use style="stroke:#000000;" x="490.630496" xlink:href="#m58498073e7" y="242.698992"/>
     <use style="stroke:#000000;" x="493.598722" xlink:href="#m58498073e7" y="242.40021"/>
     <use style="stroke:#000000;" x="496.566947" xlink:href="#m58498073e7" y="246.878219"/>
    </g>
   </g>
   <g id="patch_23">
    <path d="M 346.968394 323.002917 
L 346.968394 204.99975 
" style="fill:none;stroke:#000000;stroke-linecap:square;stroke-linejoin:miter;stroke-width:0.8;"/>
   </g>
   <g id="patch_24">
    <path d="M 503.690687 323.002917 
L 503.690687 204.99975 
" style="fill:none;stroke:#000000;stroke-linecap:square;stroke-linejoin:miter;stroke-width:0.8;"/>
   </g>
   <g id="patch_25">
    <path d="M 346.968394 323.002917 
L 503.690687 323.002917 
" style="fill:none;stroke:#000000;stroke-linecap:square;stroke-linejoin:miter;stroke-width:0.8;"/>
   </g>
   <g id="patch_26">
    <path d="M 346.968394 204.99975 
L 503.690687 204.99975 
" style="fill:none;stroke:#000000;stroke-linecap:square;stroke-linejoin:miter;stroke-width:0.8;"/>
   </g>
   <g id="text_49">
    <!-- 576 -->
    <g transform="translate(413.877041 198.99975)scale(0.12 -0.12)">
     <use xlink:href="#DejaVuSans-53"/>
     <use x="63.623047" xlink:href="#DejaVuSans-55"/>
     <use x="127.246094" xlink:href="#DejaVuSans-54"/>
    </g>
   </g>
  </g>
 </g>
 <defs>
  <clipPath id="pcf85dc0d29">
   <rect height="118.003167" width="156.722294" x="100.424706" y="27.486"/>
  </clipPath>
  <clipPath id="pef67981b30">
   <rect height="118.003167" width="156.722294" x="346.968394" y="27.486"/>
  </clipPath>
  <clipPath id="p48410802d7">
   <rect height="118.003167" width="156.722294" x="593.512081" y="27.486"/>
  </clipPath>
  <clipPath id="p5d1cad795e">
   <rect height="118.003167" width="156.722294" x="100.424706" y="204.99975"/>
  </clipPath>
  <clipPath id="p21d57e9983">
   <rect height="118.003167" width="156.722294" x="346.968394" y="204.99975"/>
  </clipPath>
 </defs>
</svg>
